<mxfile host="Electron" modified="2023-06-19T02:46:34.189Z" agent="Mozilla/5.0 (Windows NT 10.0; Win64; x64) AppleWebKit/537.36 (KHTML, like Gecko) draw.io/21.4.0 Chrome/112.0.5615.204 Electron/24.5.1 Safari/537.36" etag="8JQtdYf8PYXG7v_mxDYy" version="21.4.0" type="device">
  <diagram name="Page-1" id="e7e014a7-5840-1c2e-5031-d8a46d1fe8dd">
    <mxGraphModel dx="1366" dy="796" grid="1" gridSize="10" guides="1" tooltips="1" connect="1" arrows="1" fold="1" page="1" pageScale="1" pageWidth="827" pageHeight="1169" background="none" math="0" shadow="0">
      <root>
        <mxCell id="0" />
        <mxCell id="1" parent="0" />
        <mxCell id="5" value="" style="ellipse;shape=startState;fillColor=#000000;strokeColor=#ff0000;" parent="1" vertex="1">
          <mxGeometry x="150" y="95" width="30" height="30" as="geometry" />
        </mxCell>
        <mxCell id="6" value="" style="edgeStyle=elbowEdgeStyle;elbow=horizontal;verticalAlign=bottom;endArrow=open;endSize=8;strokeColor=#FF0000;endFill=1;rounded=0" parent="1" source="5" target="7" edge="1">
          <mxGeometry x="140" y="95" as="geometry">
            <mxPoint x="155" y="165" as="targetPoint" />
          </mxGeometry>
        </mxCell>
        <mxCell id="7" value="Login" style="movable=1;resizable=1;rotatable=1;deletable=1;editable=1;locked=0;connectable=1;fontSize=14;" parent="1" vertex="1">
          <mxGeometry x="110" y="212" width="110" height="50" as="geometry" />
        </mxCell>
        <mxCell id="9" value="" style="endArrow=open;strokeColor=#FF0000;endFill=1;rounded=0" parent="1" source="7" target="Z1vfXp_JrtO5zRxZUT0k-43" edge="1">
          <mxGeometry relative="1" as="geometry">
            <mxPoint x="180.34939759036138" y="290" as="targetPoint" />
          </mxGeometry>
        </mxCell>
        <mxCell id="W2JbwdxnUlGqQ_UnXaVQ-86" style="edgeStyle=orthogonalEdgeStyle;rounded=0;orthogonalLoop=1;jettySize=auto;html=1;strokeColor=#ff0000;endArrow=open;endFill=0;" parent="1" source="Z1vfXp_JrtO5zRxZUT0k-43" edge="1">
          <mxGeometry relative="1" as="geometry">
            <mxPoint x="340" y="306" as="targetPoint" />
            <Array as="points">
              <mxPoint x="340" y="306" />
              <mxPoint x="340" y="306" />
            </Array>
          </mxGeometry>
        </mxCell>
        <mxCell id="W2JbwdxnUlGqQ_UnXaVQ-87" style="edgeStyle=orthogonalEdgeStyle;rounded=0;orthogonalLoop=1;jettySize=auto;html=1;entryX=0;entryY=0.5;entryDx=0;entryDy=0;strokeColor=#ff0000;endArrow=open;endFill=0;" parent="1" source="Z1vfXp_JrtO5zRxZUT0k-43" target="W2JbwdxnUlGqQ_UnXaVQ-84" edge="1">
          <mxGeometry relative="1" as="geometry">
            <Array as="points">
              <mxPoint x="320" y="306" />
              <mxPoint x="320" y="220" />
            </Array>
          </mxGeometry>
        </mxCell>
        <mxCell id="Z1vfXp_JrtO5zRxZUT0k-43" value="" style="rhombus;whiteSpace=wrap;html=1;" parent="1" vertex="1">
          <mxGeometry x="146" y="287" width="38" height="38" as="geometry" />
        </mxCell>
        <mxCell id="Z1vfXp_JrtO5zRxZUT0k-47" style="edgeStyle=orthogonalEdgeStyle;rounded=0;orthogonalLoop=1;jettySize=auto;html=1;fillColor=#f8cecc;strokeColor=#FF0000;endArrow=open;endFill=0;exitX=0.5;exitY=1;exitDx=0;exitDy=0;entryX=0.5;entryY=0;entryDx=0;entryDy=0;" parent="1" source="Z1vfXp_JrtO5zRxZUT0k-43" target="W2JbwdxnUlGqQ_UnXaVQ-71" edge="1">
          <mxGeometry relative="1" as="geometry">
            <mxPoint x="170" y="360" as="targetPoint" />
            <Array as="points">
              <mxPoint x="165" y="340" />
              <mxPoint x="165" y="340" />
            </Array>
          </mxGeometry>
        </mxCell>
        <mxCell id="W2JbwdxnUlGqQ_UnXaVQ-41" value="HOME" style="fontSize=14;" parent="1" vertex="1">
          <mxGeometry x="110" y="675" width="110" height="50" as="geometry" />
        </mxCell>
        <mxCell id="W2JbwdxnUlGqQ_UnXaVQ-43" value="&lt;b&gt;&lt;font style=&quot;font-size: 16px;&quot;&gt;S&lt;/font&gt;&lt;/b&gt;" style="text;html=1;strokeColor=none;fillColor=none;align=center;verticalAlign=middle;whiteSpace=wrap;rounded=0;" parent="1" vertex="1">
          <mxGeometry x="172.75" y="325" width="14.5" height="15" as="geometry" />
        </mxCell>
        <mxCell id="Z1vfXp_JrtO5zRxZUT0k-46" value="&lt;font style=&quot;font-size: 14px;&quot;&gt;Processamento&lt;/font&gt;" style="rounded=1;whiteSpace=wrap;html=1;movable=1;resizable=1;rotatable=1;deletable=1;editable=1;locked=0;connectable=1;" parent="1" vertex="1">
          <mxGeometry x="597" y="545" width="136" height="38" as="geometry" />
        </mxCell>
        <mxCell id="38" value="" style="ellipse;shape=endState;fillColor=#000000;strokeColor=#ff0000" parent="1" vertex="1">
          <mxGeometry x="150" y="755" width="30" height="30" as="geometry" />
        </mxCell>
        <mxCell id="39" value="" style="endArrow=open;strokeColor=#FF0000;endFill=1;rounded=0;exitX=0.5;exitY=1;exitDx=0;exitDy=0;" parent="1" source="W2JbwdxnUlGqQ_UnXaVQ-41" target="38" edge="1">
          <mxGeometry relative="1" as="geometry">
            <mxPoint x="740.5" y="667" as="sourcePoint" />
          </mxGeometry>
        </mxCell>
        <mxCell id="W2JbwdxnUlGqQ_UnXaVQ-70" value="&lt;b&gt;&lt;font style=&quot;font-size: 16px;&quot;&gt;N&lt;/font&gt;&lt;/b&gt;" style="text;html=1;strokeColor=none;fillColor=none;align=center;verticalAlign=middle;whiteSpace=wrap;rounded=0;" parent="1" vertex="1">
          <mxGeometry x="187.25" y="287" width="14.5" height="15" as="geometry" />
        </mxCell>
        <mxCell id="Z1vfXp_JrtO5zRxZUT0k-42" value="" style="rounded=0;whiteSpace=wrap;html=1;fillColor=#000000;" parent="1" vertex="1">
          <mxGeometry x="40" y="147" width="250" height="18" as="geometry" />
        </mxCell>
        <mxCell id="W2JbwdxnUlGqQ_UnXaVQ-71" value="" style="rounded=0;whiteSpace=wrap;html=1;fillColor=#000000;" parent="1" vertex="1">
          <mxGeometry x="40" y="367" width="250" height="18" as="geometry" />
        </mxCell>
        <mxCell id="W2JbwdxnUlGqQ_UnXaVQ-76" style="edgeStyle=orthogonalEdgeStyle;rounded=0;orthogonalLoop=1;jettySize=auto;html=1;strokeColor=#FF0000;endArrow=open;endFill=0;" parent="1" source="W2JbwdxnUlGqQ_UnXaVQ-72" target="W2JbwdxnUlGqQ_UnXaVQ-74" edge="1">
          <mxGeometry relative="1" as="geometry" />
        </mxCell>
        <mxCell id="W2JbwdxnUlGqQ_UnXaVQ-72" value="" style="rounded=0;whiteSpace=wrap;html=1;fillColor=#000000;" parent="1" vertex="1">
          <mxGeometry x="290" y="367" width="250" height="18" as="geometry" />
        </mxCell>
        <mxCell id="W2JbwdxnUlGqQ_UnXaVQ-73" value="" style="rounded=0;whiteSpace=wrap;html=1;fillColor=#000000;" parent="1" vertex="1">
          <mxGeometry x="290" y="495" width="250" height="18" as="geometry" />
        </mxCell>
        <mxCell id="W2JbwdxnUlGqQ_UnXaVQ-75" value="" style="edgeStyle=orthogonalEdgeStyle;rounded=0;orthogonalLoop=1;jettySize=auto;html=1;strokeColor=#FF0000;endArrow=openThin;endFill=0;movable=1;resizable=1;rotatable=1;deletable=1;editable=1;locked=0;connectable=1;exitX=0.5;exitY=1;exitDx=0;exitDy=0;entryX=0.5;entryY=0;entryDx=0;entryDy=0;" parent="1" source="Z1vfXp_JrtO5zRxZUT0k-46" target="W2JbwdxnUlGqQ_UnXaVQ-81" edge="1">
          <mxGeometry relative="1" as="geometry">
            <mxPoint x="740" y="685" as="targetPoint" />
            <mxPoint x="740" y="505" as="sourcePoint" />
            <Array as="points">
              <mxPoint x="665" y="590" />
              <mxPoint x="665" y="590" />
            </Array>
          </mxGeometry>
        </mxCell>
        <mxCell id="W2JbwdxnUlGqQ_UnXaVQ-77" style="edgeStyle=orthogonalEdgeStyle;rounded=0;orthogonalLoop=1;jettySize=auto;html=1;entryX=0.5;entryY=0;entryDx=0;entryDy=0;strokeColor=#FF0000;endArrow=open;endFill=0;" parent="1" source="W2JbwdxnUlGqQ_UnXaVQ-74" target="W2JbwdxnUlGqQ_UnXaVQ-73" edge="1">
          <mxGeometry relative="1" as="geometry" />
        </mxCell>
        <mxCell id="W2JbwdxnUlGqQ_UnXaVQ-74" value="Acessando o Banco" style="movable=1;resizable=1;rotatable=1;deletable=1;editable=1;locked=0;connectable=1;fontSize=14;" parent="1" vertex="1">
          <mxGeometry x="337.5" y="410" width="155" height="50" as="geometry" />
        </mxCell>
        <mxCell id="W2JbwdxnUlGqQ_UnXaVQ-79" style="edgeStyle=orthogonalEdgeStyle;rounded=0;orthogonalLoop=1;jettySize=auto;html=1;entryX=0.5;entryY=0;entryDx=0;entryDy=0;strokeColor=#FF0000;endArrow=open;endFill=0;" parent="1" source="W2JbwdxnUlGqQ_UnXaVQ-78" target="Z1vfXp_JrtO5zRxZUT0k-46" edge="1">
          <mxGeometry relative="1" as="geometry" />
        </mxCell>
        <mxCell id="W2JbwdxnUlGqQ_UnXaVQ-78" value="" style="rounded=0;whiteSpace=wrap;html=1;fillColor=#000000;" parent="1" vertex="1">
          <mxGeometry x="540" y="495" width="250" height="18" as="geometry" />
        </mxCell>
        <mxCell id="W2JbwdxnUlGqQ_UnXaVQ-80" value="" style="rounded=0;whiteSpace=wrap;html=1;fillColor=#000000;" parent="1" vertex="1">
          <mxGeometry x="290" y="615" width="250" height="18" as="geometry" />
        </mxCell>
        <mxCell id="W2JbwdxnUlGqQ_UnXaVQ-81" value="" style="rounded=0;whiteSpace=wrap;html=1;fillColor=#000000;" parent="1" vertex="1">
          <mxGeometry x="540" y="615" width="250" height="18" as="geometry" />
        </mxCell>
        <mxCell id="W2JbwdxnUlGqQ_UnXaVQ-83" style="edgeStyle=orthogonalEdgeStyle;rounded=0;orthogonalLoop=1;jettySize=auto;html=1;strokeColor=#FF0000;endArrow=open;endFill=0;" parent="1" source="W2JbwdxnUlGqQ_UnXaVQ-82" target="W2JbwdxnUlGqQ_UnXaVQ-41" edge="1">
          <mxGeometry relative="1" as="geometry" />
        </mxCell>
        <mxCell id="W2JbwdxnUlGqQ_UnXaVQ-82" value="" style="rounded=0;whiteSpace=wrap;html=1;fillColor=#000000;" parent="1" vertex="1">
          <mxGeometry x="40" y="615" width="250" height="18" as="geometry" />
        </mxCell>
        <mxCell id="W2JbwdxnUlGqQ_UnXaVQ-90" style="edgeStyle=orthogonalEdgeStyle;rounded=0;orthogonalLoop=1;jettySize=auto;html=1;strokeColor=#FF0000;endArrow=open;endFill=0;exitX=1;exitY=0.5;exitDx=0;exitDy=0;entryX=1;entryY=0.5;entryDx=0;entryDy=0;" parent="1" source="W2JbwdxnUlGqQ_UnXaVQ-84" target="7" edge="1">
          <mxGeometry relative="1" as="geometry">
            <mxPoint x="250" y="190" as="targetPoint" />
            <Array as="points">
              <mxPoint x="489" y="232" />
              <mxPoint x="510" y="232" />
              <mxPoint x="510" y="180" />
              <mxPoint x="300" y="180" />
              <mxPoint x="300" y="237" />
            </Array>
          </mxGeometry>
        </mxCell>
        <mxCell id="W2JbwdxnUlGqQ_UnXaVQ-84" value="&lt;span style=&quot;font-size: 14px;&quot;&gt;Acessar Tela de Cadastro&lt;/span&gt;" style="rounded=1;whiteSpace=wrap;html=1;movable=1;resizable=1;rotatable=1;deletable=1;editable=1;locked=0;connectable=1;" parent="1" vertex="1">
          <mxGeometry x="339" y="190" width="150" height="60" as="geometry" />
        </mxCell>
        <mxCell id="W2JbwdxnUlGqQ_UnXaVQ-88" style="edgeStyle=orthogonalEdgeStyle;rounded=0;orthogonalLoop=1;jettySize=auto;html=1;exitX=1;exitY=0.5;exitDx=0;exitDy=0;strokeColor=#FF0000;endArrow=open;endFill=0;" parent="1" source="W2JbwdxnUlGqQ_UnXaVQ-85" edge="1">
          <mxGeometry relative="1" as="geometry">
            <mxPoint x="220" y="237" as="targetPoint" />
            <Array as="points">
              <mxPoint x="510" y="306" />
              <mxPoint x="510" y="180" />
              <mxPoint x="300" y="180" />
              <mxPoint x="300" y="237" />
            </Array>
          </mxGeometry>
        </mxCell>
        <mxCell id="W2JbwdxnUlGqQ_UnXaVQ-85" value="&lt;span style=&quot;font-size: 14px;&quot;&gt;Acessar Tela de Recuperação&lt;/span&gt;" style="rounded=1;whiteSpace=wrap;html=1;movable=1;resizable=1;rotatable=1;deletable=1;editable=1;locked=0;connectable=1;" parent="1" vertex="1">
          <mxGeometry x="339" y="276" width="150" height="60" as="geometry" />
        </mxCell>
        <mxCell id="W2JbwdxnUlGqQ_UnXaVQ-98" value="" style="group;movable=0;resizable=0;rotatable=0;deletable=0;editable=0;locked=1;connectable=0;" parent="1" vertex="1" connectable="0">
          <mxGeometry x="40" y="40" width="750" height="770" as="geometry" />
        </mxCell>
        <mxCell id="W2JbwdxnUlGqQ_UnXaVQ-67" value="Usuário" style="swimlane;whiteSpace=wrap;movable=1;resizable=1;rotatable=1;deletable=1;editable=1;locked=0;connectable=1;" parent="W2JbwdxnUlGqQ_UnXaVQ-98" vertex="1">
          <mxGeometry width="250" height="770" as="geometry" />
        </mxCell>
        <mxCell id="W2JbwdxnUlGqQ_UnXaVQ-68" value="Sistema" style="swimlane;whiteSpace=wrap;movable=1;resizable=1;rotatable=1;deletable=1;editable=1;locked=0;connectable=1;" parent="W2JbwdxnUlGqQ_UnXaVQ-98" vertex="1">
          <mxGeometry x="250" width="250" height="770" as="geometry" />
        </mxCell>
        <mxCell id="W2JbwdxnUlGqQ_UnXaVQ-69" value="Banco de Dados" style="swimlane;whiteSpace=wrap;movable=1;resizable=1;rotatable=1;deletable=1;editable=1;locked=0;connectable=1;" parent="W2JbwdxnUlGqQ_UnXaVQ-98" vertex="1">
          <mxGeometry x="500" width="250" height="770" as="geometry" />
        </mxCell>
        <mxCell id="W2JbwdxnUlGqQ_UnXaVQ-99" value="" style="group;movable=0;resizable=0;rotatable=0;deletable=0;editable=0;locked=1;connectable=0;" parent="1" vertex="1" connectable="0">
          <mxGeometry x="870" y="40" width="750" height="770" as="geometry" />
        </mxCell>
        <mxCell id="W2JbwdxnUlGqQ_UnXaVQ-100" value="Usuário" style="swimlane;whiteSpace=wrap;movable=1;resizable=1;rotatable=1;deletable=1;editable=1;locked=0;connectable=1;" parent="W2JbwdxnUlGqQ_UnXaVQ-99" vertex="1">
          <mxGeometry width="250" height="770" as="geometry" />
        </mxCell>
        <mxCell id="W2JbwdxnUlGqQ_UnXaVQ-101" value="Sistema" style="swimlane;whiteSpace=wrap;movable=1;resizable=1;rotatable=1;deletable=1;editable=1;locked=0;connectable=1;" parent="W2JbwdxnUlGqQ_UnXaVQ-99" vertex="1">
          <mxGeometry x="250" width="250" height="770" as="geometry" />
        </mxCell>
        <mxCell id="W2JbwdxnUlGqQ_UnXaVQ-102" value="Banco de Dados" style="swimlane;whiteSpace=wrap;movable=1;resizable=1;rotatable=1;deletable=1;editable=1;locked=0;connectable=1;" parent="W2JbwdxnUlGqQ_UnXaVQ-99" vertex="1">
          <mxGeometry x="500" width="250" height="770" as="geometry" />
        </mxCell>
        <mxCell id="W2JbwdxnUlGqQ_UnXaVQ-103" value="&lt;b&gt;&lt;font style=&quot;font-size: 16px;&quot;&gt;Login&lt;/font&gt;&lt;/b&gt;" style="text;html=1;strokeColor=none;fillColor=none;align=left;verticalAlign=middle;whiteSpace=wrap;rounded=0;" parent="1" vertex="1">
          <mxGeometry x="40" y="10" width="750" height="30" as="geometry" />
        </mxCell>
        <mxCell id="W2JbwdxnUlGqQ_UnXaVQ-140" value="" style="group;movable=0;resizable=0;rotatable=0;deletable=0;editable=0;locked=1;connectable=0;" parent="1" vertex="1" connectable="0">
          <mxGeometry x="1700" y="40" width="750" height="1110" as="geometry" />
        </mxCell>
        <mxCell id="W2JbwdxnUlGqQ_UnXaVQ-141" value="Usuário" style="swimlane;whiteSpace=wrap;movable=1;resizable=1;rotatable=1;deletable=1;editable=1;locked=0;connectable=1;" parent="W2JbwdxnUlGqQ_UnXaVQ-140" vertex="1">
          <mxGeometry width="250" height="1110" as="geometry" />
        </mxCell>
        <mxCell id="W2JbwdxnUlGqQ_UnXaVQ-142" value="Sistema" style="swimlane;whiteSpace=wrap;movable=1;resizable=1;rotatable=1;deletable=1;editable=1;locked=0;connectable=1;" parent="W2JbwdxnUlGqQ_UnXaVQ-140" vertex="1">
          <mxGeometry x="250" width="250" height="1110" as="geometry" />
        </mxCell>
        <mxCell id="W2JbwdxnUlGqQ_UnXaVQ-143" value="Banco de Dados" style="swimlane;whiteSpace=wrap;movable=1;resizable=1;rotatable=1;deletable=1;editable=1;locked=0;connectable=1;" parent="W2JbwdxnUlGqQ_UnXaVQ-140" vertex="1">
          <mxGeometry x="500" width="250" height="1110" as="geometry" />
        </mxCell>
        <mxCell id="W2JbwdxnUlGqQ_UnXaVQ-144" value="&lt;b&gt;&lt;font style=&quot;font-size: 16px;&quot;&gt;Cadastrar ou Alterar Dados de Usuário&lt;/font&gt;&lt;/b&gt;" style="text;html=1;strokeColor=none;fillColor=none;align=left;verticalAlign=middle;whiteSpace=wrap;rounded=0;" parent="1" vertex="1">
          <mxGeometry x="870" y="10" width="750" height="30" as="geometry" />
        </mxCell>
        <mxCell id="W2JbwdxnUlGqQ_UnXaVQ-145" value="&lt;b&gt;&lt;font style=&quot;font-size: 16px;&quot;&gt;Recuperação de Conta&lt;/font&gt;&lt;/b&gt;" style="text;html=1;strokeColor=none;fillColor=none;align=left;verticalAlign=middle;whiteSpace=wrap;rounded=0;" parent="1" vertex="1">
          <mxGeometry x="1700" y="10" width="750" height="30" as="geometry" />
        </mxCell>
        <mxCell id="W2JbwdxnUlGqQ_UnXaVQ-146" value="" style="ellipse;shape=startState;fillColor=#000000;strokeColor=#ff0000;" parent="1" vertex="1">
          <mxGeometry x="980" y="95" width="30" height="30" as="geometry" />
        </mxCell>
        <mxCell id="W2JbwdxnUlGqQ_UnXaVQ-147" value="" style="edgeStyle=elbowEdgeStyle;elbow=horizontal;verticalAlign=bottom;endArrow=open;endSize=8;strokeColor=#FF0000;endFill=1;rounded=0" parent="1" source="W2JbwdxnUlGqQ_UnXaVQ-146" target="W2JbwdxnUlGqQ_UnXaVQ-148" edge="1">
          <mxGeometry x="970" y="95" as="geometry">
            <mxPoint x="985" y="165" as="targetPoint" />
          </mxGeometry>
        </mxCell>
        <mxCell id="W2JbwdxnUlGqQ_UnXaVQ-178" style="edgeStyle=orthogonalEdgeStyle;rounded=0;orthogonalLoop=1;jettySize=auto;html=1;strokeColor=#FF0000;endArrow=open;endFill=0;" parent="1" source="W2JbwdxnUlGqQ_UnXaVQ-148" target="W2JbwdxnUlGqQ_UnXaVQ-156" edge="1">
          <mxGeometry relative="1" as="geometry" />
        </mxCell>
        <mxCell id="W2JbwdxnUlGqQ_UnXaVQ-148" value="Cadastrar ou Alterar Dados de Usuário" style="movable=1;resizable=1;rotatable=1;deletable=1;editable=1;locked=0;connectable=1;fontSize=14;whiteSpace=wrap;" parent="1" vertex="1">
          <mxGeometry x="920.5" y="212" width="150" height="68" as="geometry" />
        </mxCell>
        <mxCell id="W2JbwdxnUlGqQ_UnXaVQ-154" value="Login ou HOME" style="fontSize=14;" parent="1" vertex="1">
          <mxGeometry x="940.5" y="690" width="110" height="50" as="geometry" />
        </mxCell>
        <mxCell id="W2JbwdxnUlGqQ_UnXaVQ-179" style="edgeStyle=orthogonalEdgeStyle;rounded=0;orthogonalLoop=1;jettySize=auto;html=1;entryX=0.5;entryY=0;entryDx=0;entryDy=0;endArrow=open;endFill=0;strokeColor=#FF0000;" parent="1" source="W2JbwdxnUlGqQ_UnXaVQ-156" target="W2JbwdxnUlGqQ_UnXaVQ-181" edge="1">
          <mxGeometry relative="1" as="geometry" />
        </mxCell>
        <mxCell id="W2JbwdxnUlGqQ_UnXaVQ-180" style="edgeStyle=orthogonalEdgeStyle;rounded=0;orthogonalLoop=1;jettySize=auto;html=1;entryX=0.5;entryY=1;entryDx=0;entryDy=0;strokeColor=#FF0000;endArrow=open;endFill=0;exitX=0;exitY=0.5;exitDx=0;exitDy=0;" parent="1" source="W2JbwdxnUlGqQ_UnXaVQ-181" target="W2JbwdxnUlGqQ_UnXaVQ-148" edge="1">
          <mxGeometry relative="1" as="geometry" />
        </mxCell>
        <mxCell id="W2JbwdxnUlGqQ_UnXaVQ-156" value="&lt;font style=&quot;font-size: 14px;&quot;&gt;Processamento&lt;/font&gt;" style="rounded=1;whiteSpace=wrap;html=1;movable=1;resizable=1;rotatable=1;deletable=1;editable=1;locked=0;connectable=1;" parent="1" vertex="1">
          <mxGeometry x="1177" y="227" width="136" height="38" as="geometry" />
        </mxCell>
        <mxCell id="W2JbwdxnUlGqQ_UnXaVQ-157" value="" style="ellipse;shape=endState;fillColor=#000000;strokeColor=#ff0000" parent="1" vertex="1">
          <mxGeometry x="980.5" y="755" width="30" height="30" as="geometry" />
        </mxCell>
        <mxCell id="W2JbwdxnUlGqQ_UnXaVQ-158" value="" style="endArrow=open;strokeColor=#FF0000;endFill=1;rounded=0;exitX=0.5;exitY=1;exitDx=0;exitDy=0;" parent="1" source="W2JbwdxnUlGqQ_UnXaVQ-154" target="W2JbwdxnUlGqQ_UnXaVQ-157" edge="1">
          <mxGeometry relative="1" as="geometry">
            <mxPoint x="1570.5" y="777" as="sourcePoint" />
          </mxGeometry>
        </mxCell>
        <mxCell id="W2JbwdxnUlGqQ_UnXaVQ-160" value="" style="rounded=0;whiteSpace=wrap;html=1;fillColor=#000000;" parent="1" vertex="1">
          <mxGeometry x="870" y="147" width="250" height="18" as="geometry" />
        </mxCell>
        <mxCell id="W2JbwdxnUlGqQ_UnXaVQ-162" style="edgeStyle=orthogonalEdgeStyle;rounded=0;orthogonalLoop=1;jettySize=auto;html=1;strokeColor=#FF0000;endArrow=open;endFill=0;exitX=0.5;exitY=1;exitDx=0;exitDy=0;" parent="1" source="W2JbwdxnUlGqQ_UnXaVQ-169" target="W2JbwdxnUlGqQ_UnXaVQ-167" edge="1">
          <mxGeometry relative="1" as="geometry" />
        </mxCell>
        <mxCell id="W2JbwdxnUlGqQ_UnXaVQ-163" value="" style="rounded=0;whiteSpace=wrap;html=1;fillColor=#000000;" parent="1" vertex="1">
          <mxGeometry x="1120" y="487" width="250" height="18" as="geometry" />
        </mxCell>
        <mxCell id="W2JbwdxnUlGqQ_UnXaVQ-164" value="" style="rounded=0;whiteSpace=wrap;html=1;fillColor=#000000;" parent="1" vertex="1">
          <mxGeometry x="1370" y="633" width="250" height="18" as="geometry" />
        </mxCell>
        <mxCell id="W2JbwdxnUlGqQ_UnXaVQ-166" style="edgeStyle=orthogonalEdgeStyle;rounded=0;orthogonalLoop=1;jettySize=auto;html=1;entryX=0.5;entryY=0;entryDx=0;entryDy=0;strokeColor=#FF0000;endArrow=open;endFill=0;" parent="1" source="W2JbwdxnUlGqQ_UnXaVQ-167" target="W2JbwdxnUlGqQ_UnXaVQ-164" edge="1">
          <mxGeometry relative="1" as="geometry" />
        </mxCell>
        <mxCell id="W2JbwdxnUlGqQ_UnXaVQ-167" value="Guardando no Banco" style="movable=1;resizable=1;rotatable=1;deletable=1;editable=1;locked=0;connectable=1;fontSize=14;" parent="1" vertex="1">
          <mxGeometry x="1417.5" y="540" width="155" height="50" as="geometry" />
        </mxCell>
        <mxCell id="W2JbwdxnUlGqQ_UnXaVQ-169" value="" style="rounded=0;whiteSpace=wrap;html=1;fillColor=#000000;" parent="1" vertex="1">
          <mxGeometry x="1370" y="487" width="250" height="18" as="geometry" />
        </mxCell>
        <mxCell id="W2JbwdxnUlGqQ_UnXaVQ-170" value="" style="rounded=0;whiteSpace=wrap;html=1;fillColor=#000000;" parent="1" vertex="1">
          <mxGeometry x="1120" y="633" width="250" height="18" as="geometry" />
        </mxCell>
        <mxCell id="W2JbwdxnUlGqQ_UnXaVQ-172" style="edgeStyle=orthogonalEdgeStyle;rounded=0;orthogonalLoop=1;jettySize=auto;html=1;strokeColor=#FF0000;endArrow=open;endFill=0;" parent="1" source="W2JbwdxnUlGqQ_UnXaVQ-173" target="W2JbwdxnUlGqQ_UnXaVQ-154" edge="1">
          <mxGeometry relative="1" as="geometry" />
        </mxCell>
        <mxCell id="W2JbwdxnUlGqQ_UnXaVQ-173" value="" style="rounded=0;whiteSpace=wrap;html=1;fillColor=#000000;" parent="1" vertex="1">
          <mxGeometry x="870" y="633" width="250" height="18" as="geometry" />
        </mxCell>
        <mxCell id="W2JbwdxnUlGqQ_UnXaVQ-181" value="&lt;font style=&quot;font-size: 14px;&quot;&gt;Dados Estão Corretos?&lt;/font&gt;" style="rhombus;whiteSpace=wrap;html=1;" parent="1" vertex="1">
          <mxGeometry x="1193.5" y="336" width="103" height="103" as="geometry" />
        </mxCell>
        <mxCell id="W2JbwdxnUlGqQ_UnXaVQ-182" value="&lt;b&gt;&lt;font style=&quot;font-size: 16px;&quot;&gt;S&lt;/font&gt;&lt;/b&gt;" style="text;html=1;strokeColor=none;fillColor=none;align=center;verticalAlign=middle;whiteSpace=wrap;rounded=0;" parent="1" vertex="1">
          <mxGeometry x="1250" y="439" width="14.5" height="15" as="geometry" />
        </mxCell>
        <mxCell id="W2JbwdxnUlGqQ_UnXaVQ-183" value="&lt;b&gt;&lt;font style=&quot;font-size: 16px;&quot;&gt;N&lt;/font&gt;&lt;/b&gt;" style="text;html=1;strokeColor=none;fillColor=none;align=center;verticalAlign=middle;whiteSpace=wrap;rounded=0;" parent="1" vertex="1">
          <mxGeometry x="1177" y="367" width="14.5" height="15" as="geometry" />
        </mxCell>
        <mxCell id="W2JbwdxnUlGqQ_UnXaVQ-184" style="edgeStyle=orthogonalEdgeStyle;rounded=0;orthogonalLoop=1;jettySize=auto;html=1;entryX=0.5;entryY=0;entryDx=0;entryDy=0;endArrow=open;endFill=0;strokeColor=#FF0000;exitX=0.5;exitY=1;exitDx=0;exitDy=0;" parent="1" source="W2JbwdxnUlGqQ_UnXaVQ-181" target="W2JbwdxnUlGqQ_UnXaVQ-163" edge="1">
          <mxGeometry relative="1" as="geometry">
            <mxPoint x="1210" y="450" as="sourcePoint" />
            <mxPoint x="1255" y="346" as="targetPoint" />
          </mxGeometry>
        </mxCell>
        <mxCell id="W2JbwdxnUlGqQ_UnXaVQ-185" value="&lt;b&gt;&lt;font style=&quot;font-size: 14px;&quot;&gt;Erro&lt;/font&gt;&lt;/b&gt;" style="text;html=1;strokeColor=none;fillColor=none;align=center;verticalAlign=middle;whiteSpace=wrap;rounded=0;" parent="1" vertex="1">
          <mxGeometry x="1040" y="367" width="14.5" height="15" as="geometry" />
        </mxCell>
        <mxCell id="W2JbwdxnUlGqQ_UnXaVQ-187" value="" style="group;movable=0;resizable=0;rotatable=0;deletable=0;editable=0;locked=1;connectable=0;" parent="1" vertex="1" connectable="0">
          <mxGeometry x="2520" y="40" width="750" height="670" as="geometry" />
        </mxCell>
        <mxCell id="W2JbwdxnUlGqQ_UnXaVQ-188" value="Usuário" style="swimlane;whiteSpace=wrap;movable=1;resizable=1;rotatable=1;deletable=1;editable=1;locked=0;connectable=1;" parent="W2JbwdxnUlGqQ_UnXaVQ-187" vertex="1">
          <mxGeometry width="250" height="670" as="geometry" />
        </mxCell>
        <mxCell id="W2JbwdxnUlGqQ_UnXaVQ-189" value="Sistema" style="swimlane;whiteSpace=wrap;movable=1;resizable=1;rotatable=1;deletable=1;editable=1;locked=0;connectable=1;" parent="W2JbwdxnUlGqQ_UnXaVQ-187" vertex="1">
          <mxGeometry x="250" width="250" height="670" as="geometry" />
        </mxCell>
        <mxCell id="W2JbwdxnUlGqQ_UnXaVQ-190" value="Banco de Dados" style="swimlane;whiteSpace=wrap;movable=1;resizable=1;rotatable=1;deletable=1;editable=1;locked=0;connectable=1;" parent="W2JbwdxnUlGqQ_UnXaVQ-187" vertex="1">
          <mxGeometry x="500" width="250" height="670" as="geometry" />
        </mxCell>
        <mxCell id="W2JbwdxnUlGqQ_UnXaVQ-191" value="&lt;span style=&quot;font-size: 16px;&quot;&gt;&lt;b&gt;Buscando Ajuda&lt;/b&gt;&lt;/span&gt;" style="text;html=1;strokeColor=none;fillColor=none;align=left;verticalAlign=middle;whiteSpace=wrap;rounded=0;" parent="1" vertex="1">
          <mxGeometry x="2520" y="10" width="750" height="30" as="geometry" />
        </mxCell>
        <mxCell id="W2JbwdxnUlGqQ_UnXaVQ-192" value="" style="ellipse;shape=startState;fillColor=#000000;strokeColor=#ff0000;" parent="1" vertex="1">
          <mxGeometry x="1810" y="75" width="30" height="30" as="geometry" />
        </mxCell>
        <mxCell id="W2JbwdxnUlGqQ_UnXaVQ-193" value="" style="edgeStyle=elbowEdgeStyle;elbow=horizontal;verticalAlign=bottom;endArrow=open;endSize=8;strokeColor=#FF0000;endFill=1;rounded=0" parent="1" source="W2JbwdxnUlGqQ_UnXaVQ-192" target="W2JbwdxnUlGqQ_UnXaVQ-195" edge="1">
          <mxGeometry x="1800" y="75" as="geometry">
            <mxPoint x="1815" y="145" as="targetPoint" />
          </mxGeometry>
        </mxCell>
        <mxCell id="W2JbwdxnUlGqQ_UnXaVQ-194" style="edgeStyle=orthogonalEdgeStyle;rounded=0;orthogonalLoop=1;jettySize=auto;html=1;strokeColor=#FF0000;endArrow=open;endFill=0;entryX=0.5;entryY=0;entryDx=0;entryDy=0;" parent="1" target="W2JbwdxnUlGqQ_UnXaVQ-217" edge="1">
          <mxGeometry relative="1" as="geometry">
            <mxPoint x="1824.999999999999" y="167" as="sourcePoint" />
            <mxPoint x="1850" y="197" as="targetPoint" />
          </mxGeometry>
        </mxCell>
        <mxCell id="W2JbwdxnUlGqQ_UnXaVQ-195" value="Recuperação de Conta" style="movable=1;resizable=1;rotatable=1;deletable=1;editable=1;locked=0;connectable=1;fontSize=14;whiteSpace=wrap;" parent="1" vertex="1">
          <mxGeometry x="1755.25" y="137" width="139.5" height="50" as="geometry" />
        </mxCell>
        <mxCell id="W2JbwdxnUlGqQ_UnXaVQ-196" value="Login" style="fontSize=14;" parent="1" vertex="1">
          <mxGeometry x="1770" y="1050" width="110" height="50" as="geometry" />
        </mxCell>
        <mxCell id="W2JbwdxnUlGqQ_UnXaVQ-222" style="edgeStyle=orthogonalEdgeStyle;rounded=0;orthogonalLoop=1;jettySize=auto;html=1;entryX=0.5;entryY=0;entryDx=0;entryDy=0;strokeColor=#FF0000;endArrow=open;endFill=0;" parent="1" source="W2JbwdxnUlGqQ_UnXaVQ-199" target="W2JbwdxnUlGqQ_UnXaVQ-204" edge="1">
          <mxGeometry relative="1" as="geometry" />
        </mxCell>
        <mxCell id="W2JbwdxnUlGqQ_UnXaVQ-199" value="&lt;font style=&quot;font-size: 14px;&quot;&gt;Processamento&lt;/font&gt;" style="rounded=1;whiteSpace=wrap;html=1;movable=1;resizable=1;rotatable=1;deletable=1;editable=1;locked=0;connectable=1;" parent="1" vertex="1">
          <mxGeometry x="2007" y="218.75" width="136" height="38" as="geometry" />
        </mxCell>
        <mxCell id="W2JbwdxnUlGqQ_UnXaVQ-200" value="" style="ellipse;shape=endState;fillColor=#000000;strokeColor=#ff0000" parent="1" vertex="1">
          <mxGeometry x="1810" y="1113" width="30" height="30" as="geometry" />
        </mxCell>
        <mxCell id="W2JbwdxnUlGqQ_UnXaVQ-201" value="" style="endArrow=open;strokeColor=#FF0000;endFill=1;rounded=0;exitX=0.5;exitY=1;exitDx=0;exitDy=0;" parent="1" source="W2JbwdxnUlGqQ_UnXaVQ-196" target="W2JbwdxnUlGqQ_UnXaVQ-200" edge="1">
          <mxGeometry relative="1" as="geometry">
            <mxPoint x="2400.5" y="777" as="sourcePoint" />
          </mxGeometry>
        </mxCell>
        <mxCell id="W2JbwdxnUlGqQ_UnXaVQ-202" value="" style="rounded=0;whiteSpace=wrap;html=1;fillColor=#000000;" parent="1" vertex="1">
          <mxGeometry x="1700" y="111" width="250" height="9" as="geometry" />
        </mxCell>
        <mxCell id="W2JbwdxnUlGqQ_UnXaVQ-203" style="edgeStyle=orthogonalEdgeStyle;rounded=0;orthogonalLoop=1;jettySize=auto;html=1;strokeColor=#FF0000;endArrow=open;endFill=0;exitX=0.5;exitY=1;exitDx=0;exitDy=0;" parent="1" source="W2JbwdxnUlGqQ_UnXaVQ-208" target="W2JbwdxnUlGqQ_UnXaVQ-207" edge="1">
          <mxGeometry relative="1" as="geometry" />
        </mxCell>
        <mxCell id="W2JbwdxnUlGqQ_UnXaVQ-204" value="" style="rounded=0;whiteSpace=wrap;html=1;fillColor=#000000;" parent="1" vertex="1">
          <mxGeometry x="1950" y="273" width="250" height="9" as="geometry" />
        </mxCell>
        <mxCell id="W2JbwdxnUlGqQ_UnXaVQ-205" value="" style="rounded=0;whiteSpace=wrap;html=1;fillColor=#000000;" parent="1" vertex="1">
          <mxGeometry x="2200" y="359" width="250" height="9" as="geometry" />
        </mxCell>
        <mxCell id="W2JbwdxnUlGqQ_UnXaVQ-206" style="edgeStyle=orthogonalEdgeStyle;rounded=0;orthogonalLoop=1;jettySize=auto;html=1;strokeColor=#FF0000;endArrow=open;endFill=0;" parent="1" source="W2JbwdxnUlGqQ_UnXaVQ-207" edge="1">
          <mxGeometry relative="1" as="geometry">
            <mxPoint x="2325" y="360" as="targetPoint" />
            <Array as="points">
              <mxPoint x="2325" y="350" />
            </Array>
          </mxGeometry>
        </mxCell>
        <mxCell id="W2JbwdxnUlGqQ_UnXaVQ-207" value="Verificando se os Dados Batem" style="movable=1;resizable=1;rotatable=1;deletable=1;editable=1;locked=0;connectable=1;fontSize=14;whiteSpace=wrap;spacing=5;" parent="1" vertex="1">
          <mxGeometry x="2247.5" y="294.5" width="155" height="50" as="geometry" />
        </mxCell>
        <mxCell id="W2JbwdxnUlGqQ_UnXaVQ-208" value="" style="rounded=0;whiteSpace=wrap;html=1;fillColor=#000000;" parent="1" vertex="1">
          <mxGeometry x="2200" y="273" width="250" height="9" as="geometry" />
        </mxCell>
        <mxCell id="W2JbwdxnUlGqQ_UnXaVQ-220" style="edgeStyle=orthogonalEdgeStyle;rounded=0;orthogonalLoop=1;jettySize=auto;html=1;entryX=0.5;entryY=0;entryDx=0;entryDy=0;endArrow=open;endFill=0;strokeColor=#FF0000;" parent="1" source="W2JbwdxnUlGqQ_UnXaVQ-209" target="W2JbwdxnUlGqQ_UnXaVQ-212" edge="1">
          <mxGeometry relative="1" as="geometry" />
        </mxCell>
        <mxCell id="W2JbwdxnUlGqQ_UnXaVQ-209" value="" style="rounded=0;whiteSpace=wrap;html=1;fillColor=#000000;" parent="1" vertex="1">
          <mxGeometry x="1950" y="359" width="250" height="9" as="geometry" />
        </mxCell>
        <mxCell id="W2JbwdxnUlGqQ_UnXaVQ-210" style="edgeStyle=orthogonalEdgeStyle;rounded=0;orthogonalLoop=1;jettySize=auto;html=1;strokeColor=#FF0000;endArrow=open;endFill=0;exitX=0.5;exitY=1;exitDx=0;exitDy=0;" parent="1" source="W2JbwdxnUlGqQ_UnXaVQ-257" target="W2JbwdxnUlGqQ_UnXaVQ-196" edge="1">
          <mxGeometry relative="1" as="geometry" />
        </mxCell>
        <mxCell id="W2JbwdxnUlGqQ_UnXaVQ-221" style="edgeStyle=orthogonalEdgeStyle;rounded=0;orthogonalLoop=1;jettySize=auto;html=1;entryX=0.5;entryY=1;entryDx=0;entryDy=0;strokeColor=#FF0000;endArrow=open;endFill=0;" parent="1" source="W2JbwdxnUlGqQ_UnXaVQ-212" target="W2JbwdxnUlGqQ_UnXaVQ-217" edge="1">
          <mxGeometry relative="1" as="geometry" />
        </mxCell>
        <mxCell id="W2JbwdxnUlGqQ_UnXaVQ-225" style="edgeStyle=orthogonalEdgeStyle;rounded=0;orthogonalLoop=1;jettySize=auto;html=1;entryX=0.5;entryY=0;entryDx=0;entryDy=0;strokeColor=#FF0000;endArrow=open;endFill=0;" parent="1" source="W2JbwdxnUlGqQ_UnXaVQ-212" target="W2JbwdxnUlGqQ_UnXaVQ-224" edge="1">
          <mxGeometry relative="1" as="geometry" />
        </mxCell>
        <mxCell id="W2JbwdxnUlGqQ_UnXaVQ-212" value="&lt;font style=&quot;font-size: 14px;&quot;&gt;Dados&lt;br&gt;conferem?&lt;/font&gt;" style="rhombus;html=1;" parent="1" vertex="1">
          <mxGeometry x="2023.5" y="387" width="103" height="80" as="geometry" />
        </mxCell>
        <mxCell id="W2JbwdxnUlGqQ_UnXaVQ-213" value="&lt;b&gt;&lt;font style=&quot;font-size: 16px;&quot;&gt;S&lt;/font&gt;&lt;/b&gt;" style="text;html=1;strokeColor=none;fillColor=none;align=center;verticalAlign=middle;whiteSpace=wrap;rounded=0;" parent="1" vertex="1">
          <mxGeometry x="2080" y="470" width="14.5" height="15" as="geometry" />
        </mxCell>
        <mxCell id="W2JbwdxnUlGqQ_UnXaVQ-214" value="&lt;b&gt;&lt;font style=&quot;font-size: 16px;&quot;&gt;N&lt;/font&gt;&lt;/b&gt;" style="text;html=1;strokeColor=none;fillColor=none;align=center;verticalAlign=middle;whiteSpace=wrap;rounded=0;" parent="1" vertex="1">
          <mxGeometry x="2000" y="405" width="14.5" height="15" as="geometry" />
        </mxCell>
        <mxCell id="W2JbwdxnUlGqQ_UnXaVQ-216" value="&lt;b&gt;&lt;font style=&quot;font-size: 14px;&quot;&gt;Erro&lt;/font&gt;&lt;/b&gt;" style="text;html=1;strokeColor=none;fillColor=none;align=center;verticalAlign=middle;whiteSpace=wrap;rounded=0;" parent="1" vertex="1">
          <mxGeometry x="1840" y="405" width="14.5" height="15" as="geometry" />
        </mxCell>
        <mxCell id="W2JbwdxnUlGqQ_UnXaVQ-218" style="edgeStyle=orthogonalEdgeStyle;rounded=0;orthogonalLoop=1;jettySize=auto;html=1;entryX=0;entryY=0.5;entryDx=0;entryDy=0;strokeColor=#FF0000;endArrow=open;endFill=0;" parent="1" source="W2JbwdxnUlGqQ_UnXaVQ-217" target="W2JbwdxnUlGqQ_UnXaVQ-199" edge="1">
          <mxGeometry relative="1" as="geometry" />
        </mxCell>
        <mxCell id="W2JbwdxnUlGqQ_UnXaVQ-217" value="Inserir E-mail&#xa;ou Cel." style="movable=1;resizable=1;rotatable=1;deletable=1;editable=1;locked=0;connectable=1;fontSize=14;whiteSpace=wrap;" parent="1" vertex="1">
          <mxGeometry x="1770" y="210" width="110" height="55.5" as="geometry" />
        </mxCell>
        <mxCell id="W2JbwdxnUlGqQ_UnXaVQ-229" style="edgeStyle=orthogonalEdgeStyle;rounded=0;orthogonalLoop=1;jettySize=auto;html=1;entryX=0.5;entryY=0;entryDx=0;entryDy=0;strokeColor=#FF0000;endArrow=open;endFill=0;" parent="1" source="W2JbwdxnUlGqQ_UnXaVQ-224" target="W2JbwdxnUlGqQ_UnXaVQ-228" edge="1">
          <mxGeometry relative="1" as="geometry" />
        </mxCell>
        <mxCell id="W2JbwdxnUlGqQ_UnXaVQ-224" value="&lt;font style=&quot;font-size: 14px;&quot;&gt;Enviando Código de Recuperação para o E-mail ou Cel.&lt;/font&gt;" style="rounded=1;whiteSpace=wrap;html=1;movable=1;resizable=1;rotatable=1;deletable=1;editable=1;locked=0;connectable=1;" parent="1" vertex="1">
          <mxGeometry x="1962.5" y="490" width="225" height="60" as="geometry" />
        </mxCell>
        <mxCell id="W2JbwdxnUlGqQ_UnXaVQ-231" style="edgeStyle=orthogonalEdgeStyle;rounded=0;orthogonalLoop=1;jettySize=auto;html=1;strokeColor=#FF0000;endArrow=open;endFill=0;" parent="1" source="W2JbwdxnUlGqQ_UnXaVQ-227" target="W2JbwdxnUlGqQ_UnXaVQ-230" edge="1">
          <mxGeometry relative="1" as="geometry" />
        </mxCell>
        <mxCell id="W2JbwdxnUlGqQ_UnXaVQ-227" value="" style="rounded=0;whiteSpace=wrap;html=1;fillColor=#000000;" parent="1" vertex="1">
          <mxGeometry x="1700" y="568" width="250" height="9" as="geometry" />
        </mxCell>
        <mxCell id="W2JbwdxnUlGqQ_UnXaVQ-228" value="" style="rounded=0;whiteSpace=wrap;html=1;fillColor=#000000;" parent="1" vertex="1">
          <mxGeometry x="1950" y="568" width="250" height="9" as="geometry" />
        </mxCell>
        <mxCell id="W2JbwdxnUlGqQ_UnXaVQ-234" style="edgeStyle=orthogonalEdgeStyle;rounded=0;orthogonalLoop=1;jettySize=auto;html=1;entryX=0;entryY=0.5;entryDx=0;entryDy=0;strokeColor=#FF0000;endArrow=open;endFill=0;" parent="1" source="W2JbwdxnUlGqQ_UnXaVQ-230" target="W2JbwdxnUlGqQ_UnXaVQ-233" edge="1">
          <mxGeometry relative="1" as="geometry" />
        </mxCell>
        <mxCell id="W2JbwdxnUlGqQ_UnXaVQ-230" value="Insere o Código" style="movable=1;resizable=1;rotatable=1;deletable=1;editable=1;locked=0;connectable=1;fontSize=14;whiteSpace=wrap;" parent="1" vertex="1">
          <mxGeometry x="1770" y="597" width="110" height="55.5" as="geometry" />
        </mxCell>
        <mxCell id="W2JbwdxnUlGqQ_UnXaVQ-237" style="edgeStyle=orthogonalEdgeStyle;rounded=0;orthogonalLoop=1;jettySize=auto;html=1;strokeColor=#FF0000;endArrow=open;endFill=0;" parent="1" source="W2JbwdxnUlGqQ_UnXaVQ-233" target="W2JbwdxnUlGqQ_UnXaVQ-236" edge="1">
          <mxGeometry relative="1" as="geometry" />
        </mxCell>
        <mxCell id="W2JbwdxnUlGqQ_UnXaVQ-233" value="&lt;font style=&quot;font-size: 14px;&quot;&gt;Processamento&lt;/font&gt;" style="rounded=1;whiteSpace=wrap;html=1;movable=1;resizable=1;rotatable=1;deletable=1;editable=1;locked=0;connectable=1;" parent="1" vertex="1">
          <mxGeometry x="2007" y="605.75" width="136" height="38" as="geometry" />
        </mxCell>
        <mxCell id="W2JbwdxnUlGqQ_UnXaVQ-238" style="edgeStyle=orthogonalEdgeStyle;rounded=0;orthogonalLoop=1;jettySize=auto;html=1;exitX=0;exitY=0.5;exitDx=0;exitDy=0;strokeColor=#FF0000;endArrow=open;endFill=0;" parent="1" source="W2JbwdxnUlGqQ_UnXaVQ-236" target="W2JbwdxnUlGqQ_UnXaVQ-230" edge="1">
          <mxGeometry relative="1" as="geometry" />
        </mxCell>
        <mxCell id="W2JbwdxnUlGqQ_UnXaVQ-242" style="edgeStyle=orthogonalEdgeStyle;rounded=0;orthogonalLoop=1;jettySize=auto;html=1;entryX=1;entryY=0.5;entryDx=0;entryDy=0;strokeColor=#FF0000;endArrow=open;endFill=0;" parent="1" source="W2JbwdxnUlGqQ_UnXaVQ-236" target="W2JbwdxnUlGqQ_UnXaVQ-243" edge="1">
          <mxGeometry relative="1" as="geometry">
            <mxPoint x="1900" y="767" as="targetPoint" />
            <Array as="points">
              <mxPoint x="2075" y="755" />
              <mxPoint x="1880" y="755" />
            </Array>
          </mxGeometry>
        </mxCell>
        <mxCell id="W2JbwdxnUlGqQ_UnXaVQ-236" value="&lt;font style=&quot;font-size: 14px;&quot;&gt;Código&lt;br&gt;confere?&lt;/font&gt;" style="rhombus;html=1;" parent="1" vertex="1">
          <mxGeometry x="2023.5" y="667" width="103" height="70" as="geometry" />
        </mxCell>
        <mxCell id="W2JbwdxnUlGqQ_UnXaVQ-239" value="&lt;b&gt;&lt;font style=&quot;font-size: 16px;&quot;&gt;N&lt;/font&gt;&lt;/b&gt;" style="text;html=1;strokeColor=none;fillColor=none;align=center;verticalAlign=middle;whiteSpace=wrap;rounded=0;" parent="1" vertex="1">
          <mxGeometry x="2007" y="679" width="14.5" height="15" as="geometry" />
        </mxCell>
        <mxCell id="W2JbwdxnUlGqQ_UnXaVQ-240" value="&lt;b&gt;&lt;font style=&quot;font-size: 14px;&quot;&gt;Erro&lt;/font&gt;&lt;/b&gt;" style="text;html=1;strokeColor=none;fillColor=none;align=center;verticalAlign=middle;whiteSpace=wrap;rounded=0;" parent="1" vertex="1">
          <mxGeometry x="1840" y="679" width="14.5" height="15" as="geometry" />
        </mxCell>
        <mxCell id="W2JbwdxnUlGqQ_UnXaVQ-241" value="&lt;b&gt;&lt;font style=&quot;font-size: 16px;&quot;&gt;S&lt;/font&gt;&lt;/b&gt;" style="text;html=1;strokeColor=none;fillColor=none;align=center;verticalAlign=middle;whiteSpace=wrap;rounded=0;" parent="1" vertex="1">
          <mxGeometry x="2080" y="737" width="14.5" height="15" as="geometry" />
        </mxCell>
        <mxCell id="W2JbwdxnUlGqQ_UnXaVQ-244" style="edgeStyle=orthogonalEdgeStyle;rounded=0;orthogonalLoop=1;jettySize=auto;html=1;entryX=0.5;entryY=0;entryDx=0;entryDy=0;strokeColor=#FF0000;endArrow=open;endFill=0;" parent="1" source="W2JbwdxnUlGqQ_UnXaVQ-243" target="W2JbwdxnUlGqQ_UnXaVQ-245" edge="1">
          <mxGeometry relative="1" as="geometry">
            <mxPoint x="2070" y="817" as="targetPoint" />
            <Array as="points">
              <mxPoint x="1830" y="787" />
              <mxPoint x="2075" y="787" />
            </Array>
          </mxGeometry>
        </mxCell>
        <mxCell id="W2JbwdxnUlGqQ_UnXaVQ-243" value="Inserir Nova Senha" style="movable=1;resizable=1;rotatable=1;deletable=1;editable=1;locked=0;connectable=1;fontSize=14;whiteSpace=wrap;" parent="1" vertex="1">
          <mxGeometry x="1770" y="727" width="110" height="55.5" as="geometry" />
        </mxCell>
        <mxCell id="W2JbwdxnUlGqQ_UnXaVQ-245" value="&lt;span style=&quot;font-size: 14px;&quot;&gt;Senha Respeita&lt;br&gt;os Padrões?&lt;/span&gt;" style="rhombus;html=1;" parent="1" vertex="1">
          <mxGeometry x="2007.75" y="804" width="134.5" height="110" as="geometry" />
        </mxCell>
        <mxCell id="W2JbwdxnUlGqQ_UnXaVQ-246" value="" style="rounded=0;whiteSpace=wrap;html=1;fillColor=#000000;" parent="1" vertex="1">
          <mxGeometry x="1950" y="935" width="250" height="9" as="geometry" />
        </mxCell>
        <mxCell id="W2JbwdxnUlGqQ_UnXaVQ-254" style="edgeStyle=orthogonalEdgeStyle;rounded=0;orthogonalLoop=1;jettySize=auto;html=1;strokeColor=#FF0000;endArrow=open;endFill=0;" parent="1" source="W2JbwdxnUlGqQ_UnXaVQ-247" target="W2JbwdxnUlGqQ_UnXaVQ-253" edge="1">
          <mxGeometry relative="1" as="geometry" />
        </mxCell>
        <mxCell id="W2JbwdxnUlGqQ_UnXaVQ-247" value="" style="rounded=0;whiteSpace=wrap;html=1;fillColor=#000000;" parent="1" vertex="1">
          <mxGeometry x="2200" y="935" width="250" height="9" as="geometry" />
        </mxCell>
        <mxCell id="W2JbwdxnUlGqQ_UnXaVQ-248" style="edgeStyle=orthogonalEdgeStyle;rounded=0;orthogonalLoop=1;jettySize=auto;html=1;exitX=0;exitY=0.5;exitDx=0;exitDy=0;strokeColor=#FF0000;endArrow=open;endFill=0;entryX=0;entryY=0.5;entryDx=0;entryDy=0;" parent="1" source="W2JbwdxnUlGqQ_UnXaVQ-245" target="W2JbwdxnUlGqQ_UnXaVQ-243" edge="1">
          <mxGeometry relative="1" as="geometry">
            <mxPoint x="2034" y="712" as="sourcePoint" />
            <mxPoint x="1835" y="663" as="targetPoint" />
          </mxGeometry>
        </mxCell>
        <mxCell id="W2JbwdxnUlGqQ_UnXaVQ-249" value="&lt;b&gt;&lt;font style=&quot;font-size: 16px;&quot;&gt;N&lt;/font&gt;&lt;/b&gt;" style="text;html=1;strokeColor=none;fillColor=none;align=center;verticalAlign=middle;whiteSpace=wrap;rounded=0;" parent="1" vertex="1">
          <mxGeometry x="1992.5" y="840" width="14.5" height="15" as="geometry" />
        </mxCell>
        <mxCell id="W2JbwdxnUlGqQ_UnXaVQ-250" value="&lt;b&gt;&lt;font style=&quot;font-size: 14px;&quot;&gt;Erro&lt;/font&gt;&lt;/b&gt;" style="text;html=1;strokeColor=none;fillColor=none;align=center;verticalAlign=middle;whiteSpace=wrap;rounded=0;" parent="1" vertex="1">
          <mxGeometry x="1766" y="840" width="14.5" height="15" as="geometry" />
        </mxCell>
        <mxCell id="W2JbwdxnUlGqQ_UnXaVQ-251" style="edgeStyle=orthogonalEdgeStyle;rounded=0;orthogonalLoop=1;jettySize=auto;html=1;entryX=0.5;entryY=0;entryDx=0;entryDy=0;strokeColor=#FF0000;endArrow=open;endFill=0;exitX=0.5;exitY=1;exitDx=0;exitDy=0;" parent="1" source="W2JbwdxnUlGqQ_UnXaVQ-245" target="W2JbwdxnUlGqQ_UnXaVQ-246" edge="1">
          <mxGeometry relative="1" as="geometry">
            <mxPoint x="2085" y="814" as="targetPoint" />
            <mxPoint x="1840" y="793" as="sourcePoint" />
            <Array as="points">
              <mxPoint x="2075" y="930" />
              <mxPoint x="2075" y="930" />
            </Array>
          </mxGeometry>
        </mxCell>
        <mxCell id="W2JbwdxnUlGqQ_UnXaVQ-252" value="&lt;b&gt;&lt;font style=&quot;font-size: 16px;&quot;&gt;S&lt;/font&gt;&lt;/b&gt;" style="text;html=1;strokeColor=none;fillColor=none;align=center;verticalAlign=middle;whiteSpace=wrap;rounded=0;" parent="1" vertex="1">
          <mxGeometry x="2080" y="914" width="14.5" height="15" as="geometry" />
        </mxCell>
        <mxCell id="W2JbwdxnUlGqQ_UnXaVQ-253" value="Armazenando a Nova Senha" style="movable=1;resizable=1;rotatable=1;deletable=1;editable=1;locked=0;connectable=1;fontSize=14;whiteSpace=wrap;spacing=5;" parent="1" vertex="1">
          <mxGeometry x="2247.5" y="960" width="155" height="50" as="geometry" />
        </mxCell>
        <mxCell id="W2JbwdxnUlGqQ_UnXaVQ-255" value="" style="rounded=0;whiteSpace=wrap;html=1;fillColor=#000000;" parent="1" vertex="1">
          <mxGeometry x="1950" y="1023" width="250" height="9" as="geometry" />
        </mxCell>
        <mxCell id="W2JbwdxnUlGqQ_UnXaVQ-256" value="" style="rounded=0;whiteSpace=wrap;html=1;fillColor=#000000;" parent="1" vertex="1">
          <mxGeometry x="2200" y="1023" width="250" height="9" as="geometry" />
        </mxCell>
        <mxCell id="W2JbwdxnUlGqQ_UnXaVQ-257" value="" style="rounded=0;whiteSpace=wrap;html=1;fillColor=#000000;" parent="1" vertex="1">
          <mxGeometry x="1700" y="1023" width="250" height="9" as="geometry" />
        </mxCell>
        <mxCell id="W2JbwdxnUlGqQ_UnXaVQ-258" value="" style="group;movable=0;resizable=0;rotatable=0;deletable=0;editable=0;locked=1;connectable=0;" parent="1" vertex="1" connectable="0">
          <mxGeometry x="3350" y="40" width="750" height="670" as="geometry" />
        </mxCell>
        <mxCell id="W2JbwdxnUlGqQ_UnXaVQ-259" value="Usuário" style="swimlane;whiteSpace=wrap;movable=1;resizable=1;rotatable=1;deletable=1;editable=1;locked=0;connectable=1;" parent="W2JbwdxnUlGqQ_UnXaVQ-258" vertex="1">
          <mxGeometry width="250" height="670" as="geometry" />
        </mxCell>
        <mxCell id="W2JbwdxnUlGqQ_UnXaVQ-260" value="Sistema" style="swimlane;whiteSpace=wrap;movable=1;resizable=1;rotatable=1;deletable=1;editable=1;locked=0;connectable=1;" parent="W2JbwdxnUlGqQ_UnXaVQ-258" vertex="1">
          <mxGeometry x="250" width="250" height="670" as="geometry" />
        </mxCell>
        <mxCell id="W2JbwdxnUlGqQ_UnXaVQ-261" value="Banco de Dados" style="swimlane;whiteSpace=wrap;movable=1;resizable=1;rotatable=1;deletable=1;editable=1;locked=0;connectable=1;" parent="W2JbwdxnUlGqQ_UnXaVQ-258" vertex="1">
          <mxGeometry x="500" width="250" height="670" as="geometry" />
        </mxCell>
        <mxCell id="W2JbwdxnUlGqQ_UnXaVQ-262" value="&lt;b&gt;&lt;font style=&quot;font-size: 16px;&quot;&gt;Cadastrar Preset&lt;/font&gt;&lt;/b&gt;" style="text;html=1;strokeColor=none;fillColor=none;align=left;verticalAlign=middle;whiteSpace=wrap;rounded=0;" parent="1" vertex="1">
          <mxGeometry x="3350" y="10" width="750" height="30" as="geometry" />
        </mxCell>
        <mxCell id="W2JbwdxnUlGqQ_UnXaVQ-263" value="" style="ellipse;shape=startState;fillColor=#000000;strokeColor=#ff0000;" parent="1" vertex="1">
          <mxGeometry x="2630" y="90" width="30" height="30" as="geometry" />
        </mxCell>
        <mxCell id="W2JbwdxnUlGqQ_UnXaVQ-264" value="" style="edgeStyle=elbowEdgeStyle;elbow=horizontal;verticalAlign=bottom;endArrow=open;endSize=8;strokeColor=#FF0000;endFill=1;rounded=0" parent="1" source="W2JbwdxnUlGqQ_UnXaVQ-263" target="W2JbwdxnUlGqQ_UnXaVQ-266" edge="1">
          <mxGeometry x="2620" y="90" as="geometry">
            <mxPoint x="2635" y="160" as="targetPoint" />
          </mxGeometry>
        </mxCell>
        <mxCell id="W2JbwdxnUlGqQ_UnXaVQ-265" style="edgeStyle=orthogonalEdgeStyle;rounded=0;orthogonalLoop=1;jettySize=auto;html=1;strokeColor=#FF0000;endArrow=open;endFill=0;" parent="1" source="W2JbwdxnUlGqQ_UnXaVQ-266" target="W2JbwdxnUlGqQ_UnXaVQ-270" edge="1">
          <mxGeometry relative="1" as="geometry" />
        </mxCell>
        <mxCell id="W2JbwdxnUlGqQ_UnXaVQ-266" value="Buscando Ajuda" style="movable=1;resizable=1;rotatable=1;deletable=1;editable=1;locked=0;connectable=1;fontSize=14;whiteSpace=wrap;" parent="1" vertex="1">
          <mxGeometry x="2570" y="189.5" width="150" height="33" as="geometry" />
        </mxCell>
        <mxCell id="W2JbwdxnUlGqQ_UnXaVQ-267" value="HOME" style="fontSize=14;" parent="1" vertex="1">
          <mxGeometry x="2590" y="577" width="110" height="50" as="geometry" />
        </mxCell>
        <mxCell id="W2JbwdxnUlGqQ_UnXaVQ-268" style="edgeStyle=orthogonalEdgeStyle;rounded=0;orthogonalLoop=1;jettySize=auto;html=1;endArrow=open;endFill=0;strokeColor=#FF0000;entryX=0.5;entryY=0;entryDx=0;entryDy=0;" parent="1" source="W2JbwdxnUlGqQ_UnXaVQ-270" target="W2JbwdxnUlGqQ_UnXaVQ-275" edge="1">
          <mxGeometry relative="1" as="geometry">
            <mxPoint x="2900" y="270" as="targetPoint" />
          </mxGeometry>
        </mxCell>
        <mxCell id="W2JbwdxnUlGqQ_UnXaVQ-270" value="&lt;font style=&quot;font-size: 14px;&quot;&gt;Processamento&lt;/font&gt;" style="rounded=1;whiteSpace=wrap;html=1;movable=1;resizable=1;rotatable=1;deletable=1;editable=1;locked=0;connectable=1;" parent="1" vertex="1">
          <mxGeometry x="2827" y="187" width="136" height="38" as="geometry" />
        </mxCell>
        <mxCell id="W2JbwdxnUlGqQ_UnXaVQ-271" value="" style="ellipse;shape=endState;fillColor=#000000;strokeColor=#ff0000" parent="1" vertex="1">
          <mxGeometry x="2630.5" y="660" width="30" height="30" as="geometry" />
        </mxCell>
        <mxCell id="W2JbwdxnUlGqQ_UnXaVQ-272" value="" style="endArrow=open;strokeColor=#FF0000;endFill=1;rounded=0;exitX=0.5;exitY=1;exitDx=0;exitDy=0;" parent="1" source="W2JbwdxnUlGqQ_UnXaVQ-267" target="W2JbwdxnUlGqQ_UnXaVQ-271" edge="1">
          <mxGeometry relative="1" as="geometry">
            <mxPoint x="3220.5" y="772" as="sourcePoint" />
          </mxGeometry>
        </mxCell>
        <mxCell id="W2JbwdxnUlGqQ_UnXaVQ-273" value="" style="rounded=0;whiteSpace=wrap;html=1;fillColor=#000000;" parent="1" vertex="1">
          <mxGeometry x="2520" y="142" width="250" height="18" as="geometry" />
        </mxCell>
        <mxCell id="W2JbwdxnUlGqQ_UnXaVQ-274" style="edgeStyle=orthogonalEdgeStyle;rounded=0;orthogonalLoop=1;jettySize=auto;html=1;strokeColor=#FF0000;endArrow=open;endFill=0;exitX=0.5;exitY=1;exitDx=0;exitDy=0;" parent="1" source="W2JbwdxnUlGqQ_UnXaVQ-279" target="W2JbwdxnUlGqQ_UnXaVQ-278" edge="1">
          <mxGeometry relative="1" as="geometry" />
        </mxCell>
        <mxCell id="W2JbwdxnUlGqQ_UnXaVQ-275" value="" style="rounded=0;whiteSpace=wrap;html=1;fillColor=#000000;" parent="1" vertex="1">
          <mxGeometry x="2770" y="262" width="250" height="18" as="geometry" />
        </mxCell>
        <mxCell id="W2JbwdxnUlGqQ_UnXaVQ-276" value="" style="rounded=0;whiteSpace=wrap;html=1;fillColor=#000000;" parent="1" vertex="1">
          <mxGeometry x="3020" y="392" width="250" height="18" as="geometry" />
        </mxCell>
        <mxCell id="W2JbwdxnUlGqQ_UnXaVQ-277" style="edgeStyle=orthogonalEdgeStyle;rounded=0;orthogonalLoop=1;jettySize=auto;html=1;entryX=0.5;entryY=0;entryDx=0;entryDy=0;strokeColor=#FF0000;endArrow=open;endFill=0;" parent="1" source="W2JbwdxnUlGqQ_UnXaVQ-278" target="W2JbwdxnUlGqQ_UnXaVQ-276" edge="1">
          <mxGeometry relative="1" as="geometry" />
        </mxCell>
        <mxCell id="W2JbwdxnUlGqQ_UnXaVQ-278" value="Buscando no Banco" style="movable=1;resizable=1;rotatable=1;deletable=1;editable=1;locked=0;connectable=1;fontSize=14;" parent="1" vertex="1">
          <mxGeometry x="3067.5" y="307.5" width="155" height="50" as="geometry" />
        </mxCell>
        <mxCell id="W2JbwdxnUlGqQ_UnXaVQ-279" value="" style="rounded=0;whiteSpace=wrap;html=1;fillColor=#000000;" parent="1" vertex="1">
          <mxGeometry x="3020" y="262" width="250" height="18" as="geometry" />
        </mxCell>
        <mxCell id="W2JbwdxnUlGqQ_UnXaVQ-289" style="edgeStyle=orthogonalEdgeStyle;rounded=0;orthogonalLoop=1;jettySize=auto;html=1;strokeColor=#FF0000;endArrow=open;endFill=0;" parent="1" source="W2JbwdxnUlGqQ_UnXaVQ-280" target="W2JbwdxnUlGqQ_UnXaVQ-288" edge="1">
          <mxGeometry relative="1" as="geometry" />
        </mxCell>
        <mxCell id="W2JbwdxnUlGqQ_UnXaVQ-280" value="" style="rounded=0;whiteSpace=wrap;html=1;fillColor=#000000;" parent="1" vertex="1">
          <mxGeometry x="2770" y="392" width="250" height="18" as="geometry" />
        </mxCell>
        <mxCell id="W2JbwdxnUlGqQ_UnXaVQ-281" style="edgeStyle=orthogonalEdgeStyle;rounded=0;orthogonalLoop=1;jettySize=auto;html=1;strokeColor=#FF0000;endArrow=open;endFill=0;exitX=0;exitY=0.5;exitDx=0;exitDy=0;" parent="1" source="W2JbwdxnUlGqQ_UnXaVQ-266" target="W2JbwdxnUlGqQ_UnXaVQ-267" edge="1">
          <mxGeometry relative="1" as="geometry">
            <mxPoint x="2645.0000000000005" y="646" as="sourcePoint" />
            <Array as="points">
              <mxPoint x="2550" y="206" />
              <mxPoint x="2550" y="602" />
            </Array>
          </mxGeometry>
        </mxCell>
        <mxCell id="W2JbwdxnUlGqQ_UnXaVQ-290" style="edgeStyle=orthogonalEdgeStyle;rounded=0;orthogonalLoop=1;jettySize=auto;html=1;entryX=0.5;entryY=1;entryDx=0;entryDy=0;strokeColor=#FF0000;endArrow=open;endFill=0;" parent="1" source="W2JbwdxnUlGqQ_UnXaVQ-288" target="W2JbwdxnUlGqQ_UnXaVQ-266" edge="1">
          <mxGeometry relative="1" as="geometry">
            <mxPoint x="2680" y="270" as="targetPoint" />
          </mxGeometry>
        </mxCell>
        <mxCell id="W2JbwdxnUlGqQ_UnXaVQ-291" style="edgeStyle=orthogonalEdgeStyle;rounded=0;orthogonalLoop=1;jettySize=auto;html=1;exitX=0.5;exitY=1;exitDx=0;exitDy=0;entryX=0.5;entryY=1;entryDx=0;entryDy=0;strokeColor=#FF0000;endArrow=open;endFill=0;" parent="1" source="W2JbwdxnUlGqQ_UnXaVQ-288" target="W2JbwdxnUlGqQ_UnXaVQ-266" edge="1">
          <mxGeometry relative="1" as="geometry">
            <mxPoint x="2670" y="290" as="targetPoint" />
            <mxPoint x="2883" y="541" as="sourcePoint" />
            <Array as="points">
              <mxPoint x="2895" y="540" />
              <mxPoint x="2645" y="540" />
            </Array>
          </mxGeometry>
        </mxCell>
        <mxCell id="W2JbwdxnUlGqQ_UnXaVQ-288" value="&lt;span style=&quot;font-size: 14px;&quot;&gt;Encontrou?&lt;/span&gt;" style="rhombus;html=1;" parent="1" vertex="1">
          <mxGeometry x="2843.5" y="440" width="103" height="80" as="geometry" />
        </mxCell>
        <mxCell id="W2JbwdxnUlGqQ_UnXaVQ-292" value="&lt;b&gt;&lt;font style=&quot;font-size: 16px;&quot;&gt;N&lt;/font&gt;&lt;/b&gt;" style="text;html=1;strokeColor=none;fillColor=none;align=center;verticalAlign=middle;whiteSpace=wrap;rounded=0;" parent="1" vertex="1">
          <mxGeometry x="2827" y="459" width="14.5" height="15" as="geometry" />
        </mxCell>
        <mxCell id="W2JbwdxnUlGqQ_UnXaVQ-293" value="&lt;b&gt;&lt;font style=&quot;font-size: 16px;&quot;&gt;S&lt;/font&gt;&lt;/b&gt;" style="text;html=1;strokeColor=none;fillColor=none;align=center;verticalAlign=middle;whiteSpace=wrap;rounded=0;" parent="1" vertex="1">
          <mxGeometry x="2900" y="520" width="14.5" height="15" as="geometry" />
        </mxCell>
        <mxCell id="W2JbwdxnUlGqQ_UnXaVQ-295" value="&lt;b&gt;&lt;font style=&quot;font-size: 14px;&quot;&gt;Erro&lt;/font&gt;&lt;/b&gt;" style="text;html=1;strokeColor=none;fillColor=none;align=center;verticalAlign=middle;whiteSpace=wrap;rounded=0;" parent="1" vertex="1">
          <mxGeometry x="2660.5" y="460" width="14.5" height="15" as="geometry" />
        </mxCell>
        <mxCell id="W2JbwdxnUlGqQ_UnXaVQ-296" value="" style="group;movable=0;resizable=0;rotatable=0;deletable=0;editable=0;locked=1;connectable=0;" parent="1" vertex="1" connectable="0">
          <mxGeometry x="4180" y="40" width="750" height="510" as="geometry" />
        </mxCell>
        <mxCell id="W2JbwdxnUlGqQ_UnXaVQ-297" value="Usuário" style="swimlane;whiteSpace=wrap;movable=1;resizable=1;rotatable=1;deletable=1;editable=1;locked=0;connectable=1;" parent="W2JbwdxnUlGqQ_UnXaVQ-296" vertex="1">
          <mxGeometry width="250" height="510.00000000000006" as="geometry" />
        </mxCell>
        <mxCell id="W2JbwdxnUlGqQ_UnXaVQ-298" value="Sistema" style="swimlane;whiteSpace=wrap;movable=1;resizable=1;rotatable=1;deletable=1;editable=1;locked=0;connectable=1;" parent="W2JbwdxnUlGqQ_UnXaVQ-296" vertex="1">
          <mxGeometry x="250" width="250" height="510.00000000000006" as="geometry" />
        </mxCell>
        <mxCell id="W2JbwdxnUlGqQ_UnXaVQ-299" value="Banco de Dados" style="swimlane;whiteSpace=wrap;movable=1;resizable=1;rotatable=1;deletable=1;editable=1;locked=0;connectable=1;" parent="W2JbwdxnUlGqQ_UnXaVQ-296" vertex="1">
          <mxGeometry x="500" width="250" height="510.00000000000006" as="geometry" />
        </mxCell>
        <mxCell id="W2JbwdxnUlGqQ_UnXaVQ-300" value="&lt;b&gt;&lt;font style=&quot;font-size: 16px;&quot;&gt;Cadastrar Novo Ponto&lt;/font&gt;&lt;/b&gt;" style="text;html=1;strokeColor=none;fillColor=none;align=left;verticalAlign=middle;whiteSpace=wrap;rounded=0;" parent="1" vertex="1">
          <mxGeometry x="4180" y="10" width="750" height="30" as="geometry" />
        </mxCell>
        <mxCell id="W2JbwdxnUlGqQ_UnXaVQ-301" value="" style="ellipse;shape=startState;fillColor=#000000;strokeColor=#ff0000;" parent="1" vertex="1">
          <mxGeometry x="3460" y="95" width="30" height="30" as="geometry" />
        </mxCell>
        <mxCell id="W2JbwdxnUlGqQ_UnXaVQ-302" value="" style="edgeStyle=elbowEdgeStyle;elbow=horizontal;verticalAlign=bottom;endArrow=open;endSize=8;strokeColor=#FF0000;endFill=1;rounded=0" parent="1" source="W2JbwdxnUlGqQ_UnXaVQ-301" target="W2JbwdxnUlGqQ_UnXaVQ-304" edge="1">
          <mxGeometry x="3450" y="95" as="geometry">
            <mxPoint x="3465" y="165" as="targetPoint" />
          </mxGeometry>
        </mxCell>
        <mxCell id="W2JbwdxnUlGqQ_UnXaVQ-303" style="edgeStyle=orthogonalEdgeStyle;rounded=0;orthogonalLoop=1;jettySize=auto;html=1;strokeColor=#FF0000;endArrow=open;endFill=0;exitX=1;exitY=0.5;exitDx=0;exitDy=0;startArrow=open;startFill=0;" parent="1" source="W2JbwdxnUlGqQ_UnXaVQ-326" target="W2JbwdxnUlGqQ_UnXaVQ-308" edge="1">
          <mxGeometry relative="1" as="geometry" />
        </mxCell>
        <mxCell id="W2JbwdxnUlGqQ_UnXaVQ-331" style="edgeStyle=orthogonalEdgeStyle;rounded=0;orthogonalLoop=1;jettySize=auto;html=1;strokeColor=#FF0000;endArrow=open;endFill=0;" parent="1" source="W2JbwdxnUlGqQ_UnXaVQ-304" target="W2JbwdxnUlGqQ_UnXaVQ-326" edge="1">
          <mxGeometry relative="1" as="geometry" />
        </mxCell>
        <mxCell id="W2JbwdxnUlGqQ_UnXaVQ-304" value="Cadastrar Preset" style="movable=1;resizable=1;rotatable=1;deletable=1;editable=1;locked=0;connectable=1;fontSize=14;whiteSpace=wrap;" parent="1" vertex="1">
          <mxGeometry x="3400.5" y="182" width="150" height="48" as="geometry" />
        </mxCell>
        <mxCell id="W2JbwdxnUlGqQ_UnXaVQ-305" value="Presets" style="fontSize=14;" parent="1" vertex="1">
          <mxGeometry x="3420" y="580" width="110" height="50" as="geometry" />
        </mxCell>
        <mxCell id="W2JbwdxnUlGqQ_UnXaVQ-308" value="&lt;font style=&quot;font-size: 14px;&quot;&gt;Processamento&lt;/font&gt;" style="rounded=1;whiteSpace=wrap;html=1;movable=1;resizable=1;rotatable=1;deletable=1;editable=1;locked=0;connectable=1;" parent="1" vertex="1">
          <mxGeometry x="3657" y="271.5" width="136" height="38" as="geometry" />
        </mxCell>
        <mxCell id="W2JbwdxnUlGqQ_UnXaVQ-309" value="" style="ellipse;shape=endState;fillColor=#000000;strokeColor=#ff0000" parent="1" vertex="1">
          <mxGeometry x="3460.5" y="650" width="30" height="30" as="geometry" />
        </mxCell>
        <mxCell id="W2JbwdxnUlGqQ_UnXaVQ-310" value="" style="endArrow=open;strokeColor=#FF0000;endFill=1;rounded=0;exitX=0.5;exitY=1;exitDx=0;exitDy=0;" parent="1" source="W2JbwdxnUlGqQ_UnXaVQ-305" target="W2JbwdxnUlGqQ_UnXaVQ-309" edge="1">
          <mxGeometry relative="1" as="geometry">
            <mxPoint x="4050.5" y="747" as="sourcePoint" />
          </mxGeometry>
        </mxCell>
        <mxCell id="W2JbwdxnUlGqQ_UnXaVQ-311" value="" style="rounded=0;whiteSpace=wrap;html=1;fillColor=#000000;" parent="1" vertex="1">
          <mxGeometry x="3350" y="147" width="250" height="18" as="geometry" />
        </mxCell>
        <mxCell id="W2JbwdxnUlGqQ_UnXaVQ-312" style="edgeStyle=orthogonalEdgeStyle;rounded=0;orthogonalLoop=1;jettySize=auto;html=1;strokeColor=#FF0000;endArrow=open;endFill=0;exitX=0.5;exitY=1;exitDx=0;exitDy=0;" parent="1" source="W2JbwdxnUlGqQ_UnXaVQ-317" target="W2JbwdxnUlGqQ_UnXaVQ-316" edge="1">
          <mxGeometry relative="1" as="geometry" />
        </mxCell>
        <mxCell id="W2JbwdxnUlGqQ_UnXaVQ-313" value="" style="rounded=0;whiteSpace=wrap;html=1;fillColor=#000000;" parent="1" vertex="1">
          <mxGeometry x="3350" y="426" width="250" height="18" as="geometry" />
        </mxCell>
        <mxCell id="W2JbwdxnUlGqQ_UnXaVQ-314" value="" style="rounded=0;whiteSpace=wrap;html=1;fillColor=#000000;" parent="1" vertex="1">
          <mxGeometry x="3850" y="542" width="250" height="18" as="geometry" />
        </mxCell>
        <mxCell id="W2JbwdxnUlGqQ_UnXaVQ-315" style="edgeStyle=orthogonalEdgeStyle;rounded=0;orthogonalLoop=1;jettySize=auto;html=1;entryX=0.5;entryY=0;entryDx=0;entryDy=0;strokeColor=#FF0000;endArrow=open;endFill=0;" parent="1" source="W2JbwdxnUlGqQ_UnXaVQ-316" target="W2JbwdxnUlGqQ_UnXaVQ-314" edge="1">
          <mxGeometry relative="1" as="geometry" />
        </mxCell>
        <mxCell id="W2JbwdxnUlGqQ_UnXaVQ-316" value="Guardando no Banco" style="movable=1;resizable=1;rotatable=1;deletable=1;editable=1;locked=0;connectable=1;fontSize=14;" parent="1" vertex="1">
          <mxGeometry x="3897.5" y="465" width="155" height="50" as="geometry" />
        </mxCell>
        <mxCell id="W2JbwdxnUlGqQ_UnXaVQ-317" value="" style="rounded=0;whiteSpace=wrap;html=1;fillColor=#000000;" parent="1" vertex="1">
          <mxGeometry x="3850" y="426" width="250" height="18" as="geometry" />
        </mxCell>
        <mxCell id="W2JbwdxnUlGqQ_UnXaVQ-318" value="" style="rounded=0;whiteSpace=wrap;html=1;fillColor=#000000;" parent="1" vertex="1">
          <mxGeometry x="3600" y="542" width="250" height="18" as="geometry" />
        </mxCell>
        <mxCell id="W2JbwdxnUlGqQ_UnXaVQ-319" style="edgeStyle=orthogonalEdgeStyle;rounded=0;orthogonalLoop=1;jettySize=auto;html=1;strokeColor=#FF0000;endArrow=open;endFill=0;" parent="1" source="W2JbwdxnUlGqQ_UnXaVQ-320" target="W2JbwdxnUlGqQ_UnXaVQ-305" edge="1">
          <mxGeometry relative="1" as="geometry" />
        </mxCell>
        <mxCell id="W2JbwdxnUlGqQ_UnXaVQ-320" value="" style="rounded=0;whiteSpace=wrap;html=1;fillColor=#000000;" parent="1" vertex="1">
          <mxGeometry x="3350.5" y="542" width="250" height="18" as="geometry" />
        </mxCell>
        <mxCell id="W2JbwdxnUlGqQ_UnXaVQ-324" style="edgeStyle=orthogonalEdgeStyle;rounded=0;orthogonalLoop=1;jettySize=auto;html=1;entryX=0.5;entryY=0;entryDx=0;entryDy=0;endArrow=open;endFill=0;strokeColor=#FF0000;exitX=0.5;exitY=1;exitDx=0;exitDy=0;" parent="1" source="W2JbwdxnUlGqQ_UnXaVQ-326" target="W2JbwdxnUlGqQ_UnXaVQ-313" edge="1">
          <mxGeometry relative="1" as="geometry">
            <mxPoint x="3475.5" y="444" as="sourcePoint" />
            <mxPoint x="3735" y="316" as="targetPoint" />
          </mxGeometry>
        </mxCell>
        <mxCell id="W2JbwdxnUlGqQ_UnXaVQ-334" style="edgeStyle=orthogonalEdgeStyle;rounded=0;orthogonalLoop=1;jettySize=auto;html=1;entryX=0;entryY=0.5;entryDx=0;entryDy=0;strokeColor=#FF0000;endArrow=open;endFill=0;startArrow=open;startFill=0;" parent="1" source="W2JbwdxnUlGqQ_UnXaVQ-326" target="W2JbwdxnUlGqQ_UnXaVQ-333" edge="1">
          <mxGeometry relative="1" as="geometry">
            <Array as="points">
              <mxPoint x="3620" y="290" />
              <mxPoint x="3620" y="371" />
            </Array>
          </mxGeometry>
        </mxCell>
        <mxCell id="W2JbwdxnUlGqQ_UnXaVQ-326" value="Escolher Ponto + Configuração" style="movable=1;resizable=1;rotatable=1;deletable=1;editable=1;locked=0;connectable=1;fontSize=14;whiteSpace=wrap;" parent="1" vertex="1">
          <mxGeometry x="3400.5" y="266.5" width="150" height="48" as="geometry" />
        </mxCell>
        <mxCell id="W2JbwdxnUlGqQ_UnXaVQ-333" value="&lt;span style=&quot;font-size: 14px;&quot;&gt;Acessar Tela de Cadastro Novo Ponto&lt;/span&gt;" style="rounded=1;whiteSpace=wrap;html=1;movable=1;resizable=1;rotatable=1;deletable=1;editable=1;locked=0;connectable=1;" parent="1" vertex="1">
          <mxGeometry x="3655.25" y="341" width="150" height="60" as="geometry" />
        </mxCell>
        <mxCell id="W2JbwdxnUlGqQ_UnXaVQ-335" value="" style="rounded=0;whiteSpace=wrap;html=1;fillColor=#000000;" parent="1" vertex="1">
          <mxGeometry x="3600" y="426" width="250" height="18" as="geometry" />
        </mxCell>
        <mxCell id="W2JbwdxnUlGqQ_UnXaVQ-336" value="" style="group;movable=0;resizable=0;rotatable=0;deletable=0;editable=0;locked=1;connectable=0;" parent="1" vertex="1" connectable="0">
          <mxGeometry x="5010" y="40" width="750" height="580" as="geometry" />
        </mxCell>
        <mxCell id="W2JbwdxnUlGqQ_UnXaVQ-337" value="Usuário" style="swimlane;whiteSpace=wrap;movable=1;resizable=1;rotatable=1;deletable=1;editable=1;locked=0;connectable=1;" parent="W2JbwdxnUlGqQ_UnXaVQ-336" vertex="1">
          <mxGeometry width="250" height="580" as="geometry" />
        </mxCell>
        <mxCell id="W2JbwdxnUlGqQ_UnXaVQ-338" value="Sistema" style="swimlane;whiteSpace=wrap;movable=1;resizable=1;rotatable=1;deletable=1;editable=1;locked=0;connectable=1;" parent="W2JbwdxnUlGqQ_UnXaVQ-336" vertex="1">
          <mxGeometry x="250" width="250" height="580" as="geometry" />
        </mxCell>
        <mxCell id="W2JbwdxnUlGqQ_UnXaVQ-339" value="Banco de Dados" style="swimlane;whiteSpace=wrap;movable=1;resizable=1;rotatable=1;deletable=1;editable=1;locked=0;connectable=1;" parent="W2JbwdxnUlGqQ_UnXaVQ-336" vertex="1">
          <mxGeometry x="500" width="250" height="580" as="geometry" />
        </mxCell>
        <mxCell id="W2JbwdxnUlGqQ_UnXaVQ-340" value="&lt;b&gt;&lt;font style=&quot;font-size: 16px;&quot;&gt;Monitoramento&lt;/font&gt;&lt;/b&gt;" style="text;html=1;strokeColor=none;fillColor=none;align=left;verticalAlign=middle;whiteSpace=wrap;rounded=0;" parent="1" vertex="1">
          <mxGeometry x="5010" y="10" width="750" height="30" as="geometry" />
        </mxCell>
        <mxCell id="W2JbwdxnUlGqQ_UnXaVQ-341" value="" style="ellipse;shape=startState;fillColor=#000000;strokeColor=#ff0000;" parent="1" vertex="1">
          <mxGeometry x="4290" y="95" width="30" height="30" as="geometry" />
        </mxCell>
        <mxCell id="W2JbwdxnUlGqQ_UnXaVQ-342" value="" style="edgeStyle=elbowEdgeStyle;elbow=horizontal;verticalAlign=bottom;endArrow=open;endSize=8;strokeColor=#FF0000;endFill=1;rounded=0" parent="1" source="W2JbwdxnUlGqQ_UnXaVQ-341" target="W2JbwdxnUlGqQ_UnXaVQ-345" edge="1">
          <mxGeometry x="4280" y="95" as="geometry">
            <mxPoint x="4295" y="165" as="targetPoint" />
          </mxGeometry>
        </mxCell>
        <mxCell id="W2JbwdxnUlGqQ_UnXaVQ-343" style="edgeStyle=orthogonalEdgeStyle;rounded=0;orthogonalLoop=1;jettySize=auto;html=1;strokeColor=#FF0000;endArrow=open;endFill=0;exitX=1;exitY=0.5;exitDx=0;exitDy=0;startArrow=none;startFill=0;" parent="1" source="W2JbwdxnUlGqQ_UnXaVQ-345" target="W2JbwdxnUlGqQ_UnXaVQ-347" edge="1">
          <mxGeometry relative="1" as="geometry" />
        </mxCell>
        <mxCell id="W2JbwdxnUlGqQ_UnXaVQ-345" value="Cadastrar Ponto +&#xa;Configurações" style="movable=1;resizable=1;rotatable=1;deletable=1;editable=1;locked=0;connectable=1;fontSize=14;whiteSpace=wrap;" parent="1" vertex="1">
          <mxGeometry x="4230.5" y="182" width="150" height="48" as="geometry" />
        </mxCell>
        <mxCell id="W2JbwdxnUlGqQ_UnXaVQ-346" value="Pontos / &#xa;Novo Preset" style="fontSize=14;" parent="1" vertex="1">
          <mxGeometry x="4250" y="420" width="110" height="50" as="geometry" />
        </mxCell>
        <mxCell id="W2JbwdxnUlGqQ_UnXaVQ-347" value="&lt;font style=&quot;font-size: 14px;&quot;&gt;Processamento&lt;/font&gt;" style="rounded=1;whiteSpace=wrap;html=1;movable=1;resizable=1;rotatable=1;deletable=1;editable=1;locked=0;connectable=1;" parent="1" vertex="1">
          <mxGeometry x="4487" y="187" width="136" height="38" as="geometry" />
        </mxCell>
        <mxCell id="W2JbwdxnUlGqQ_UnXaVQ-348" value="" style="ellipse;shape=endState;fillColor=#000000;strokeColor=#ff0000" parent="1" vertex="1">
          <mxGeometry x="4290.5" y="490" width="30" height="30" as="geometry" />
        </mxCell>
        <mxCell id="W2JbwdxnUlGqQ_UnXaVQ-349" value="" style="endArrow=open;strokeColor=#FF0000;endFill=1;rounded=0;exitX=0.5;exitY=1;exitDx=0;exitDy=0;" parent="1" source="W2JbwdxnUlGqQ_UnXaVQ-346" target="W2JbwdxnUlGqQ_UnXaVQ-348" edge="1">
          <mxGeometry relative="1" as="geometry">
            <mxPoint x="4880.5" y="587" as="sourcePoint" />
          </mxGeometry>
        </mxCell>
        <mxCell id="W2JbwdxnUlGqQ_UnXaVQ-350" value="" style="rounded=0;whiteSpace=wrap;html=1;fillColor=#000000;" parent="1" vertex="1">
          <mxGeometry x="4180" y="147" width="250" height="18" as="geometry" />
        </mxCell>
        <mxCell id="W2JbwdxnUlGqQ_UnXaVQ-351" style="edgeStyle=orthogonalEdgeStyle;rounded=0;orthogonalLoop=1;jettySize=auto;html=1;strokeColor=#FF0000;endArrow=open;endFill=0;exitX=0.5;exitY=1;exitDx=0;exitDy=0;" parent="1" source="W2JbwdxnUlGqQ_UnXaVQ-356" target="W2JbwdxnUlGqQ_UnXaVQ-355" edge="1">
          <mxGeometry relative="1" as="geometry" />
        </mxCell>
        <mxCell id="W2JbwdxnUlGqQ_UnXaVQ-353" value="" style="rounded=0;whiteSpace=wrap;html=1;fillColor=#000000;" parent="1" vertex="1">
          <mxGeometry x="4680" y="382" width="250" height="18" as="geometry" />
        </mxCell>
        <mxCell id="W2JbwdxnUlGqQ_UnXaVQ-354" style="edgeStyle=orthogonalEdgeStyle;rounded=0;orthogonalLoop=1;jettySize=auto;html=1;entryX=0.5;entryY=0;entryDx=0;entryDy=0;strokeColor=#FF0000;endArrow=open;endFill=0;" parent="1" source="W2JbwdxnUlGqQ_UnXaVQ-355" target="W2JbwdxnUlGqQ_UnXaVQ-353" edge="1">
          <mxGeometry relative="1" as="geometry" />
        </mxCell>
        <mxCell id="W2JbwdxnUlGqQ_UnXaVQ-355" value="Guardando no Banco" style="movable=1;resizable=1;rotatable=1;deletable=1;editable=1;locked=0;connectable=1;fontSize=14;" parent="1" vertex="1">
          <mxGeometry x="4727.5" y="305" width="155" height="50" as="geometry" />
        </mxCell>
        <mxCell id="W2JbwdxnUlGqQ_UnXaVQ-356" value="" style="rounded=0;whiteSpace=wrap;html=1;fillColor=#000000;" parent="1" vertex="1">
          <mxGeometry x="4680" y="266" width="250" height="18" as="geometry" />
        </mxCell>
        <mxCell id="W2JbwdxnUlGqQ_UnXaVQ-357" value="" style="rounded=0;whiteSpace=wrap;html=1;fillColor=#000000;" parent="1" vertex="1">
          <mxGeometry x="4430" y="382" width="250" height="18" as="geometry" />
        </mxCell>
        <mxCell id="W2JbwdxnUlGqQ_UnXaVQ-358" style="edgeStyle=orthogonalEdgeStyle;rounded=0;orthogonalLoop=1;jettySize=auto;html=1;strokeColor=#FF0000;endArrow=open;endFill=0;" parent="1" source="W2JbwdxnUlGqQ_UnXaVQ-359" target="W2JbwdxnUlGqQ_UnXaVQ-346" edge="1">
          <mxGeometry relative="1" as="geometry" />
        </mxCell>
        <mxCell id="W2JbwdxnUlGqQ_UnXaVQ-359" value="" style="rounded=0;whiteSpace=wrap;html=1;fillColor=#000000;" parent="1" vertex="1">
          <mxGeometry x="4180.5" y="382" width="250" height="18" as="geometry" />
        </mxCell>
        <mxCell id="W2JbwdxnUlGqQ_UnXaVQ-360" style="edgeStyle=orthogonalEdgeStyle;rounded=0;orthogonalLoop=1;jettySize=auto;html=1;endArrow=open;endFill=0;strokeColor=#FF0000;exitX=0.5;exitY=1;exitDx=0;exitDy=0;entryX=0.5;entryY=0;entryDx=0;entryDy=0;" parent="1" source="W2JbwdxnUlGqQ_UnXaVQ-347" target="W2JbwdxnUlGqQ_UnXaVQ-364" edge="1">
          <mxGeometry relative="1" as="geometry">
            <mxPoint x="4305.5" y="314.5" as="sourcePoint" />
            <mxPoint x="4568" y="410" as="targetPoint" />
          </mxGeometry>
        </mxCell>
        <mxCell id="W2JbwdxnUlGqQ_UnXaVQ-364" value="" style="rounded=0;whiteSpace=wrap;html=1;fillColor=#000000;" parent="1" vertex="1">
          <mxGeometry x="4430" y="266" width="250" height="18" as="geometry" />
        </mxCell>
        <mxCell id="W2JbwdxnUlGqQ_UnXaVQ-365" value="" style="group" parent="1" vertex="1" connectable="0">
          <mxGeometry x="5830" y="40" width="750" height="880" as="geometry" />
        </mxCell>
        <mxCell id="W2JbwdxnUlGqQ_UnXaVQ-366" value="Usuário" style="swimlane;whiteSpace=wrap;movable=1;resizable=1;rotatable=1;deletable=1;editable=1;locked=0;connectable=1;" parent="W2JbwdxnUlGqQ_UnXaVQ-365" vertex="1">
          <mxGeometry width="250" height="880" as="geometry" />
        </mxCell>
        <mxCell id="W2JbwdxnUlGqQ_UnXaVQ-367" value="Sistema" style="swimlane;whiteSpace=wrap;movable=1;resizable=1;rotatable=1;deletable=1;editable=1;locked=0;connectable=1;" parent="W2JbwdxnUlGqQ_UnXaVQ-365" vertex="1">
          <mxGeometry x="250" width="250" height="880" as="geometry" />
        </mxCell>
        <mxCell id="W2JbwdxnUlGqQ_UnXaVQ-368" value="Banco de Dados" style="swimlane;whiteSpace=wrap;movable=1;resizable=1;rotatable=1;deletable=1;editable=1;locked=0;connectable=1;" parent="W2JbwdxnUlGqQ_UnXaVQ-365" vertex="1">
          <mxGeometry x="500" width="250" height="880" as="geometry" />
        </mxCell>
        <mxCell id="W2JbwdxnUlGqQ_UnXaVQ-369" value="&lt;b&gt;&lt;font style=&quot;font-size: 16px;&quot;&gt;MODELO&lt;/font&gt;&lt;/b&gt;" style="text;html=1;strokeColor=none;fillColor=none;align=left;verticalAlign=middle;whiteSpace=wrap;rounded=0;" parent="1" vertex="1">
          <mxGeometry x="5830" y="10" width="750" height="30" as="geometry" />
        </mxCell>
        <mxCell id="W2JbwdxnUlGqQ_UnXaVQ-371" value="" style="edgeStyle=elbowEdgeStyle;elbow=horizontal;verticalAlign=bottom;endArrow=open;endSize=8;strokeColor=#FF0000;endFill=1;rounded=0" parent="1" source="W2JbwdxnUlGqQ_UnXaVQ-370" target="W2JbwdxnUlGqQ_UnXaVQ-374" edge="1">
          <mxGeometry x="5110" y="95" as="geometry">
            <mxPoint x="5125" y="165" as="targetPoint" />
          </mxGeometry>
        </mxCell>
        <mxCell id="W2JbwdxnUlGqQ_UnXaVQ-381" value="" style="rounded=0;whiteSpace=wrap;html=1;fillColor=#000000;" parent="1" vertex="1">
          <mxGeometry x="5010" y="256" width="250" height="18" as="geometry" />
        </mxCell>
        <mxCell id="W2JbwdxnUlGqQ_UnXaVQ-373" style="edgeStyle=orthogonalEdgeStyle;rounded=0;orthogonalLoop=1;jettySize=auto;html=1;strokeColor=#FF0000;endArrow=open;endFill=0;entryX=0.5;entryY=0;entryDx=0;entryDy=0;" parent="1" source="W2JbwdxnUlGqQ_UnXaVQ-374" target="W2JbwdxnUlGqQ_UnXaVQ-381" edge="1">
          <mxGeometry relative="1" as="geometry">
            <mxPoint x="5135" y="260" as="targetPoint" />
            <Array as="points">
              <mxPoint x="5135" y="250" />
              <mxPoint x="5135" y="250" />
            </Array>
          </mxGeometry>
        </mxCell>
        <mxCell id="W2JbwdxnUlGqQ_UnXaVQ-374" value="Monitoramento" style="movable=1;resizable=1;rotatable=1;deletable=1;editable=1;locked=0;connectable=1;fontSize=14;whiteSpace=wrap;" parent="1" vertex="1">
          <mxGeometry x="5060" y="182" width="150" height="48" as="geometry" />
        </mxCell>
        <mxCell id="W2JbwdxnUlGqQ_UnXaVQ-395" value="Ver Relatórios /&#xa;View Ponto" style="fontSize=14;" parent="1" vertex="1">
          <mxGeometry x="5080.5" y="410" width="110" height="50" as="geometry" />
        </mxCell>
        <mxCell id="W2JbwdxnUlGqQ_UnXaVQ-396" style="edgeStyle=orthogonalEdgeStyle;rounded=0;orthogonalLoop=1;jettySize=auto;html=1;strokeColor=#FF0000;endArrow=open;endFill=0;" parent="1" source="W2JbwdxnUlGqQ_UnXaVQ-388" target="W2JbwdxnUlGqQ_UnXaVQ-395" edge="1">
          <mxGeometry relative="1" as="geometry" />
        </mxCell>
        <mxCell id="W2JbwdxnUlGqQ_UnXaVQ-387" style="edgeStyle=orthogonalEdgeStyle;rounded=0;orthogonalLoop=1;jettySize=auto;html=1;strokeColor=#FF0000;endArrow=open;endFill=0;exitX=0.5;exitY=1;exitDx=0;exitDy=0;" parent="1" source="W2JbwdxnUlGqQ_UnXaVQ-395" target="W2JbwdxnUlGqQ_UnXaVQ-375" edge="1">
          <mxGeometry relative="1" as="geometry">
            <mxPoint x="5135.5" y="560" as="sourcePoint" />
          </mxGeometry>
        </mxCell>
        <mxCell id="W2JbwdxnUlGqQ_UnXaVQ-375" value="HOME" style="fontSize=14;" parent="1" vertex="1">
          <mxGeometry x="5080" y="490" width="110" height="50" as="geometry" />
        </mxCell>
        <mxCell id="W2JbwdxnUlGqQ_UnXaVQ-378" value="" style="endArrow=open;strokeColor=#FF0000;endFill=1;rounded=0;exitX=0.5;exitY=1;exitDx=0;exitDy=0;" parent="1" source="W2JbwdxnUlGqQ_UnXaVQ-375" target="W2JbwdxnUlGqQ_UnXaVQ-377" edge="1">
          <mxGeometry relative="1" as="geometry">
            <mxPoint x="5710.5" y="587" as="sourcePoint" />
          </mxGeometry>
        </mxCell>
        <mxCell id="W2JbwdxnUlGqQ_UnXaVQ-377" value="" style="ellipse;shape=endState;fillColor=#000000;strokeColor=#ff0000" parent="1" vertex="1">
          <mxGeometry x="5120" y="560" width="30" height="30" as="geometry" />
        </mxCell>
        <mxCell id="W2JbwdxnUlGqQ_UnXaVQ-370" value="" style="ellipse;shape=startState;fillColor=#000000;strokeColor=#ff0000;" parent="1" vertex="1">
          <mxGeometry x="5120" y="95" width="30" height="30" as="geometry" />
        </mxCell>
        <mxCell id="W2JbwdxnUlGqQ_UnXaVQ-382" value="" style="rounded=0;whiteSpace=wrap;html=1;fillColor=#000000;" parent="1" vertex="1">
          <mxGeometry x="5510" y="372" width="250" height="18" as="geometry" />
        </mxCell>
        <mxCell id="W2JbwdxnUlGqQ_UnXaVQ-383" style="edgeStyle=orthogonalEdgeStyle;rounded=0;orthogonalLoop=1;jettySize=auto;html=1;entryX=0.5;entryY=0;entryDx=0;entryDy=0;strokeColor=#FF0000;endArrow=open;endFill=0;" parent="1" source="W2JbwdxnUlGqQ_UnXaVQ-384" target="W2JbwdxnUlGqQ_UnXaVQ-382" edge="1">
          <mxGeometry relative="1" as="geometry" />
        </mxCell>
        <mxCell id="W2JbwdxnUlGqQ_UnXaVQ-384" value="Buscando Informações" style="movable=1;resizable=1;rotatable=1;deletable=1;editable=1;locked=0;connectable=1;fontSize=14;" parent="1" vertex="1">
          <mxGeometry x="5557.5" y="295" width="155" height="50" as="geometry" />
        </mxCell>
        <mxCell id="W2JbwdxnUlGqQ_UnXaVQ-380" style="edgeStyle=orthogonalEdgeStyle;rounded=0;orthogonalLoop=1;jettySize=auto;html=1;strokeColor=#FF0000;endArrow=open;endFill=0;exitX=0.5;exitY=1;exitDx=0;exitDy=0;" parent="1" source="W2JbwdxnUlGqQ_UnXaVQ-385" target="W2JbwdxnUlGqQ_UnXaVQ-384" edge="1">
          <mxGeometry relative="1" as="geometry" />
        </mxCell>
        <mxCell id="W2JbwdxnUlGqQ_UnXaVQ-385" value="" style="rounded=0;whiteSpace=wrap;html=1;fillColor=#000000;" parent="1" vertex="1">
          <mxGeometry x="5510" y="256" width="250" height="18" as="geometry" />
        </mxCell>
        <mxCell id="W2JbwdxnUlGqQ_UnXaVQ-386" value="" style="rounded=0;whiteSpace=wrap;html=1;fillColor=#000000;" parent="1" vertex="1">
          <mxGeometry x="5260" y="372" width="250" height="18" as="geometry" />
        </mxCell>
        <mxCell id="W2JbwdxnUlGqQ_UnXaVQ-388" value="" style="rounded=0;whiteSpace=wrap;html=1;fillColor=#000000;" parent="1" vertex="1">
          <mxGeometry x="5010.5" y="372" width="250" height="18" as="geometry" />
        </mxCell>
        <mxCell id="W2JbwdxnUlGqQ_UnXaVQ-393" value="" style="rounded=0;whiteSpace=wrap;html=1;fillColor=#000000;" parent="1" vertex="1">
          <mxGeometry x="5260" y="256" width="250" height="18" as="geometry" />
        </mxCell>
        <mxCell id="W2JbwdxnUlGqQ_UnXaVQ-379" value="" style="rounded=0;whiteSpace=wrap;html=1;fillColor=#000000;" parent="1" vertex="1">
          <mxGeometry x="5010" y="147" width="250" height="18" as="geometry" />
        </mxCell>
      </root>
    </mxGraphModel>
  </diagram>
</mxfile>
